<svg width="28" height="28" viewBox="0 0 28 28" fill="none" xmlns="http://www.w3.org/2000/svg">
<path d="M20.6667 2.45339C22.6778 3.61453 24.3507 5.28076 25.5198 7.28713C26.689 9.29349 27.3139 11.5704 27.3327 13.8925C27.3514 16.2146 26.7634 18.5013 25.6268 20.5263C24.4902 22.5513 22.8444 24.2443 20.8524 25.4378C18.8604 26.6313 16.5912 27.2838 14.2695 27.3308C11.9479 27.3778 9.65415 26.8176 7.61549 25.7057C5.57683 24.5938 3.86391 22.9688 2.6463 20.9914C1.4287 19.0141 0.748627 16.753 0.673415 14.4321L0.666748 14.0001L0.673415 13.5681C0.748086 11.2654 1.41815 9.02134 2.61827 7.05472C3.81839 5.08809 5.50762 3.466 7.52127 2.34657C9.53492 1.22714 11.8043 0.648589 14.1081 0.66731C16.4119 0.686032 18.6716 1.30139 20.6667 2.45339ZM18.9427 10.3907C18.7132 10.1612 18.4077 10.0233 18.0837 10.0029C17.7596 9.9825 17.4393 10.0811 17.1827 10.2801L17.0574 10.3907L12.6667 14.7801L10.9427 13.0574L10.8174 12.9467C10.5609 12.7479 10.2406 12.6494 9.91662 12.6699C9.59267 12.6903 9.28729 12.8282 9.05776 13.0577C8.82824 13.2873 8.69032 13.5926 8.66989 13.9166C8.64945 14.2406 8.74789 14.5608 8.94675 14.8174L9.05742 14.9427L11.7241 17.6094L11.8494 17.7201C12.0832 17.9015 12.3708 17.9999 12.6667 17.9999C12.9627 17.9999 13.2503 17.9015 13.4841 17.7201L13.6094 17.6094L18.9427 12.2761L19.0534 12.1507C19.2524 11.8942 19.351 11.5739 19.3306 11.2498C19.3102 10.9258 19.1723 10.6203 18.9427 10.3907Z" fill="#0F595C"/>
</svg>
