<svg width="126" height="40" viewBox="0 0 126 40" fill="none" xmlns="http://www.w3.org/2000/svg">
<rect width="40" height="40" rx="20" fill="#0F595C"/>
<path fill-rule="evenodd" clip-rule="evenodd" d="M5.87657 12.2919C5.03574 13.0934 5.92747 15.276 9.42946 20.9875C11.5324 24.4165 13.5691 27.4127 13.9561 27.6458C15.2099 28.4 16.1113 27.5893 17.6876 24.2914L19.2337 21.0558L20.4076 23.5539C21.9918 26.9255 22.1349 27.0988 23.3329 27.0988C24.4941 27.0988 25.2007 26.2697 27.685 21.9912C29.0524 19.6365 29.2345 19.0439 28.8194 18.3044C27.9829 16.8136 26.1692 17.3564 24.9553 19.4608C24.391 20.4389 23.7959 21.2391 23.6331 21.2382C23.4703 21.2374 22.7673 19.9119 22.0708 18.2931C19.9402 13.3382 18.41 13.4453 16.1315 18.7083C15.3231 20.5757 14.5596 22.0066 14.4354 21.8878C14.3107 21.7689 12.9025 19.5499 11.3055 16.9563C8.94892 13.1294 8.19411 12.2178 7.29579 12.1174C6.68711 12.0491 6.04816 12.1278 5.87657 12.2919Z" fill="white"/>
<path d="M34.4175 15.5101C34.4175 16.9255 33.2258 18.0729 31.7556 18.0729C30.2855 18.0729 29.0938 16.9255 29.0938 15.5101C29.0938 14.0947 30.2855 12.9473 31.7556 12.9473C33.2258 12.9473 34.4175 14.0947 34.4175 15.5101ZM30.3913 15.5101C30.3913 16.2355 31.0022 16.8236 31.7556 16.8236C32.5091 16.8236 33.12 16.2355 33.12 15.5101C33.12 14.7846 32.5091 14.1966 31.7556 14.1966C31.0022 14.1966 30.3913 14.7846 30.3913 15.5101Z" fill="#F28532"/>
<path d="M60.84 27L57.54 18.32L54.24 27H52.08L48.42 12.8H50.88L53.46 23.12L57.54 12.56L61.6 23.12L64.2 12.8H66.68L63 27H60.84ZM70.7425 27H68.5425V12H70.7425V18.36C71.3692 17.32 72.3825 16.8 73.7825 16.8C74.9425 16.8 75.8692 17.18 76.5625 17.94C77.2558 18.7 77.6025 19.7133 77.6025 20.98V27H75.4025V21.34C75.4025 20.54 75.2158 19.92 74.8425 19.48C74.4692 19.0267 73.9625 18.8 73.3225 18.8C72.5625 18.8 71.9425 19.0867 71.4625 19.66C70.9825 20.2333 70.7425 21.04 70.7425 22.08V27ZM88.6575 25.7C87.6575 26.7 86.4175 27.2 84.9375 27.2C83.4575 27.2 82.2108 26.7 81.1975 25.7C80.1975 24.6867 79.6975 23.4533 79.6975 22C79.6975 20.5467 80.1975 19.32 81.1975 18.32C82.2108 17.3067 83.4575 16.8 84.9375 16.8C86.4175 16.8 87.6575 17.3067 88.6575 18.32C89.6708 19.32 90.1775 20.5467 90.1775 22C90.1775 23.4533 89.6708 24.6867 88.6575 25.7ZM84.9375 25.16C85.8042 25.16 86.5175 24.86 87.0775 24.26C87.6508 23.6467 87.9375 22.8933 87.9375 22C87.9375 21.1067 87.6508 20.36 87.0775 19.76C86.5175 19.1467 85.8042 18.84 84.9375 18.84C84.0575 18.84 83.3308 19.1467 82.7575 19.76C82.1975 20.36 81.9175 21.1067 81.9175 22C81.9175 22.8933 82.1975 23.6467 82.7575 24.26C83.3308 24.86 84.0575 25.16 84.9375 25.16ZM93.4902 14.82C93.0902 14.82 92.7435 14.68 92.4502 14.4C92.1568 14.1067 92.0102 13.7533 92.0102 13.34C92.0102 12.94 92.1568 12.6 92.4502 12.32C92.7435 12.0267 93.0902 11.88 93.4902 11.88C93.9035 11.88 94.2502 12.0267 94.5302 12.32C94.8102 12.6 94.9502 12.94 94.9502 13.34C94.9502 13.7533 94.8102 14.1067 94.5302 14.4C94.2502 14.68 93.9035 14.82 93.4902 14.82ZM92.3902 27V17H94.5902V27H92.3902ZM101.066 27.2C99.8797 27.2 98.8797 26.9067 98.0664 26.32C97.2664 25.7333 96.8397 24.9467 96.7864 23.96H99.0664C99.2264 24.9467 99.9131 25.44 101.126 25.44C101.62 25.44 102.013 25.3533 102.306 25.18C102.6 24.9933 102.746 24.7267 102.746 24.38C102.746 24.0333 102.633 23.76 102.406 23.56C102.18 23.36 101.8 23.1933 101.266 23.06L99.6264 22.62C97.9197 22.1667 97.0664 21.16 97.0664 19.6C97.0664 18.76 97.4064 18.0867 98.0864 17.58C98.7664 17.06 99.6664 16.8 100.786 16.8C101.866 16.8 102.753 17.0733 103.446 17.62C104.14 18.1667 104.526 18.8933 104.606 19.8H102.406C102.193 18.9733 101.646 18.56 100.766 18.56C100.326 18.56 99.9731 18.6533 99.7064 18.84C99.4397 19.0133 99.3064 19.26 99.3064 19.58C99.3064 20.1533 99.7531 20.5533 100.646 20.78L102.326 21.22C104.1 21.6733 104.986 22.68 104.986 24.24C104.986 25.1867 104.62 25.92 103.886 26.44C103.166 26.9467 102.226 27.2 101.066 27.2ZM107.357 27V12.8H109.697V27H107.357ZM113.178 27V12.8H117.538C119.644 12.8 121.411 13.48 122.838 14.84C124.264 16.2 124.978 17.8867 124.978 19.9C124.978 21.9133 124.264 23.6 122.838 24.96C121.411 26.32 119.644 27 117.538 27H113.178ZM115.518 24.82H117.538C119.031 24.82 120.244 24.3533 121.178 23.42C122.124 22.4867 122.598 21.3133 122.598 19.9C122.598 18.4867 122.124 17.3133 121.178 16.38C120.244 15.4467 119.031 14.98 117.538 14.98H115.518V24.82Z" fill="#333333"/>
</svg>
