<svg width="32" height="32" viewBox="0 0 32 32" fill="none" xmlns="http://www.w3.org/2000/svg">
<rect width="32" height="32" rx="4" fill="#F7F7F7"/>
<g clip-path="url(#clip0_590_19893)">
<path d="M16 23.5C20.1421 23.5 23.5 20.1421 23.5 16C23.5 11.8579 20.1421 8.5 16 8.5C11.8579 8.5 8.5 11.8579 8.5 16C8.5 20.1421 11.8579 23.5 16 23.5Z" stroke="#002829" stroke-width="1.67" stroke-linecap="round" stroke-linejoin="round"/>
<path d="M18.3333 13.5C18.1824 13.2382 17.963 13.0223 17.6988 12.8755C17.4346 12.7287 17.1354 12.6565 16.8333 12.6667H15.1667C14.7246 12.6667 14.3007 12.8423 13.9882 13.1549C13.6756 13.4674 13.5 13.8914 13.5 14.3334C13.5 14.7754 13.6756 15.1993 13.9882 15.5119C14.3007 15.8245 14.7246 16 15.1667 16H16.8333C17.2754 16 17.6993 16.1756 18.0118 16.4882C18.3244 16.8008 18.5 17.2247 18.5 17.6667C18.5 18.1087 18.3244 18.5327 18.0118 18.8452C17.6993 19.1578 17.2754 19.3334 16.8333 19.3334H15.1667C14.8646 19.3436 14.5654 19.2714 14.3012 19.1246C14.037 18.9778 13.8176 18.7619 13.6667 18.5" stroke="#002829" stroke-width="1.67" stroke-linecap="round" stroke-linejoin="round"/>
<path d="M16 11V12.6667M16 19.3333V21" stroke="#002829" stroke-width="1.67" stroke-linecap="round" stroke-linejoin="round"/>
</g>
<defs>
<clipPath id="clip0_590_19893">
<rect width="20" height="20" fill="white" transform="translate(6 6)"/>
</clipPath>
</defs>
</svg>
