<svg width="80" height="80" viewBox="0 0 80 80" fill="none" xmlns="http://www.w3.org/2000/svg">
<rect width="80" height="80" rx="8" fill="#002829"/>
<g clip-path="url(#clip0_600_19761)">
<path d="M35.2 38.4001C38.7347 38.4001 41.6 35.5347 41.6 32.0001C41.6 28.4655 38.7347 25.6001 35.2 25.6001C31.6654 25.6001 28.8 28.4655 28.8 32.0001C28.8 35.5347 31.6654 38.4001 35.2 38.4001Z" stroke="white" stroke-width="1.67" stroke-linecap="round" stroke-linejoin="round"/>
<path d="M25.6001 54.4V51.2C25.6001 49.5027 26.2744 47.8748 27.4746 46.6746C28.6748 45.4743 30.3027 44.8 32.0001 44.8H38.4001C40.0975 44.8 41.7253 45.4743 42.9256 46.6746C44.1258 47.8748 44.8001 49.5027 44.8001 51.2V54.4" stroke="white" stroke-width="1.67" stroke-linecap="round" stroke-linejoin="round"/>
<path d="M46.4 38.4L49.6 41.6L56 35.2" stroke="#F28532" stroke-width="1.67" stroke-linecap="round" stroke-linejoin="round"/>
</g>
<defs>
<clipPath id="clip0_600_19761">
<rect width="38.4" height="38.4" fill="white" transform="translate(20.8 20.8)"/>
</clipPath>
</defs>
</svg>
