<svg width="80" height="80" viewBox="0 0 80 80" fill="none" xmlns="http://www.w3.org/2000/svg">
<rect width="80" height="80" rx="8" fill="#002829"/>
<path d="M23.3295 32.7336C23.9623 32.7336 24.2787 32.4172 24.2787 31.7844V26.9592C24.2787 25.8122 24.5687 24.9487 25.1488 24.3686C25.742 23.7886 26.599 23.4985 27.7196 23.4985H32.6041C33.2501 23.4985 33.5731 23.1821 33.5731 22.5493C33.5731 21.9165 33.2501 21.6001 32.6041 21.6001H27.68C25.9398 21.6001 24.6214 22.0417 23.725 22.925C22.8417 23.8083 22.4 25.1201 22.4 26.8603V31.7844C22.4 32.4172 22.7098 32.7336 23.3295 32.7336ZM27.68 56.8001H32.6041C33.2501 56.8001 33.5731 56.4903 33.5731 55.8707C33.5731 55.2379 33.2501 54.9214 32.6041 54.9214H27.7196C26.599 54.9214 25.742 54.6315 25.1488 54.0513C24.5687 53.4713 24.2787 52.6078 24.2787 51.4607V46.6356C24.2787 46.0028 23.9623 45.6863 23.3295 45.6863C22.7098 45.6863 22.4 46.0028 22.4 46.6356V51.5596C22.4 53.2999 22.8417 54.6051 23.725 55.4751C24.6214 56.3585 25.9398 56.8001 27.68 56.8001ZM47.396 56.8001H52.32C54.0602 56.8001 55.372 56.3519 56.2554 55.4555C57.1519 54.5721 57.6 53.2735 57.6 51.5596V46.6356C57.6 46.0028 57.2835 45.6863 56.6507 45.6863C56.0312 45.6863 55.7213 46.0028 55.7213 46.6356V51.4607C55.7213 52.6078 55.4181 53.4713 54.8117 54.0513C54.2053 54.6315 53.3549 54.9214 52.2607 54.9214H47.396C46.7499 54.9214 46.4271 55.2379 46.4271 55.8707C46.4271 56.4903 46.7499 56.8001 47.396 56.8001Z" fill="white"/>
<path d="M57.6 31.7844C57.6 32.4172 57.2835 32.7336 56.6507 32.7336C56.0312 32.7336 55.7213 32.4172 55.7213 31.7844V26.9592C55.7213 25.8122 55.4181 24.9487 54.8117 24.3686C54.2053 23.7886 53.3549 23.4985 52.2606 23.4985H47.396C46.7499 23.4985 46.4269 23.1821 46.4269 22.5493C46.4269 21.9165 46.7499 21.6001 47.396 21.6001H52.32C54.0602 21.6001 55.372 22.0483 56.2552 22.9448C57.1517 23.8281 57.6 25.1333 57.6 26.8603V31.7844Z" fill="white"/>
<path d="M40.0001 51.9999C41.7527 51.9999 43.399 51.6639 44.9388 50.9917C46.4873 50.3281 47.8486 49.4093 49.0226 48.2353C50.1967 47.0525 51.1198 45.6914 51.7919 44.1514C52.4641 42.6031 52.8001 40.9525 52.8001 39.1999C52.8001 37.4473 52.4641 35.801 51.7919 34.2611C51.1198 32.7127 50.1967 31.3515 49.0226 30.1774C47.8486 28.9948 46.4873 28.0717 44.9388 27.4081C43.3905 26.736 41.7399 26.3999 39.9873 26.3999C38.2346 26.3999 36.5842 26.736 35.0358 27.4081C33.4958 28.0717 32.1389 28.9948 30.9648 30.1774C29.7907 31.3515 28.8676 32.7127 28.1955 34.2611C27.5319 35.801 27.2001 37.4473 27.2001 39.1999C27.2001 40.9525 27.5319 42.6031 28.1955 44.1514C28.8676 45.6914 29.7907 47.0525 30.9648 48.2353C32.1474 49.4093 33.5086 50.3281 35.0485 50.9917C36.597 51.6639 38.2474 51.9999 40.0001 51.9999ZM40.0001 50.3537C38.4516 50.3537 37.0054 50.0644 35.6611 49.4858C34.3169 48.9073 33.1343 48.1076 32.1133 47.0866C31.0924 46.0657 30.2927 44.8831 29.7141 43.5389C29.1441 42.1861 28.8591 40.7397 28.8591 39.1999C28.8591 37.6601 29.1441 36.218 29.7141 34.8737C30.2927 33.5209 31.0881 32.3341 32.1006 31.3132C33.1215 30.2837 34.3041 29.484 35.6483 28.914C37.001 28.3354 38.4474 28.0462 39.9873 28.0462C41.5358 28.0462 42.982 28.3354 44.3263 28.914C45.6705 29.484 46.8532 30.2837 47.874 31.3132C48.9034 32.3341 49.7074 33.5209 50.286 34.8737C50.8646 36.218 51.1538 37.6601 51.1538 39.1999C51.1538 40.7397 50.8646 42.1861 50.286 43.5389C49.7159 44.8831 48.9206 46.0657 47.8996 47.0866C46.8786 48.1076 45.6918 48.9073 44.3391 49.4858C42.9863 50.0644 41.5399 50.3537 40.0001 50.3537ZM39.9873 45.4786C40.8466 45.4786 41.5996 45.3213 42.2462 45.0065C42.9012 44.6917 43.4074 44.3343 43.7647 43.9345C44.1306 43.5346 44.3135 43.2028 44.3135 42.9391C44.3135 42.8114 44.2625 42.7265 44.1604 42.6839C44.0668 42.6413 43.969 42.6455 43.8668 42.6965C43.4415 42.9858 42.9183 43.2538 42.2972 43.5005C41.6761 43.7388 40.9062 43.858 39.9873 43.858C39.0684 43.858 38.2985 43.7388 37.6775 43.5005C37.0649 43.2538 36.5416 42.9858 36.1078 42.6965C36.0057 42.6455 35.9036 42.6413 35.8015 42.6839C35.7079 42.7265 35.6611 42.8114 35.6611 42.9391C35.6611 43.2028 35.8398 43.5346 36.1971 43.9345C36.5629 44.3343 37.0734 44.6917 37.7286 45.0065C38.3836 45.3213 39.1366 45.4786 39.9873 45.4786ZM36.1716 38.013C36.5544 38.013 36.8862 37.8557 37.167 37.5409C37.4562 37.2261 37.6009 36.8305 37.6009 36.354C37.6009 35.8861 37.4562 35.4948 37.167 35.18C36.8862 34.8567 36.5544 34.695 36.1716 34.695C35.7972 34.695 35.4697 34.8567 35.1889 35.18C34.9166 35.4948 34.7805 35.8861 34.7805 36.354C34.7805 36.8305 34.9209 37.2261 35.2017 37.5409C35.4824 37.8557 35.8057 38.013 36.1716 38.013ZM43.7903 38.013C44.1732 38.013 44.505 37.8557 44.7857 37.5409C45.0665 37.2261 45.2068 36.8305 45.2068 36.354C45.2068 35.8861 45.0665 35.4948 44.7857 35.18C44.505 34.8567 44.1732 34.695 43.7903 34.695C43.4159 34.695 43.0884 34.8567 42.8076 35.18C42.5354 35.4948 42.3993 35.8861 42.3993 36.354C42.3993 36.8305 42.5396 37.2261 42.8204 37.5409C43.1012 37.8557 43.4244 38.013 43.7903 38.013Z" fill="white"/>
<path d="M54.4726 40.7451H25.1273C24.7967 40.7451 24.5261 40.6716 24.3157 40.5244C24.1052 40.3772 24 40.1985 24 39.9883C24 39.7676 24.1052 39.5836 24.3157 39.4364C24.5261 39.2788 24.7967 39.2 25.1273 39.2H54.4726C54.8034 39.2 55.0739 39.2788 55.2843 39.4364C55.4947 39.5836 55.6 39.7676 55.6 39.9883C55.6 40.1985 55.4947 40.3772 55.2843 40.5244C55.0739 40.6716 54.8034 40.7451 54.4726 40.7451Z" fill="#F28532"/>
</svg>
