<svg width="80" height="80" viewBox="0 0 80 80" fill="none" xmlns="http://www.w3.org/2000/svg">
<rect width="80" height="80" rx="8" fill="#002829"/>
<path d="M23.3294 32.7336C23.9622 32.7336 24.2787 32.4172 24.2787 31.7844V26.9592C24.2787 25.8122 24.5687 24.9487 25.1488 24.3686C25.742 23.7886 26.5989 23.4985 27.7196 23.4985H32.604C33.25 23.4985 33.573 23.1821 33.573 22.5493C33.573 21.9165 33.25 21.6001 32.604 21.6001H27.68C25.9398 21.6001 24.6214 22.0417 23.7249 22.925C22.8416 23.8083 22.4 25.1201 22.4 26.8603V31.7844C22.4 32.4172 22.7098 32.7336 23.3294 32.7336ZM27.68 56.8001H32.604C33.25 56.8001 33.573 56.4903 33.573 55.8707C33.573 55.2379 33.25 54.9214 32.604 54.9214H27.7196C26.5989 54.9214 25.742 54.6315 25.1488 54.0513C24.5687 53.4713 24.2787 52.6078 24.2787 51.4607V46.6356C24.2787 46.0028 23.9622 45.6863 23.3294 45.6863C22.7098 45.6863 22.4 46.0028 22.4 46.6356V51.5596C22.4 53.2999 22.8416 54.6051 23.7249 55.4751C24.6214 56.3585 25.9398 56.8001 27.68 56.8001ZM47.396 56.8001H52.32C54.0602 56.8001 55.372 56.3519 56.2554 55.4555C57.1518 54.5721 57.6 53.2735 57.6 51.5596V46.6356C57.6 46.0028 57.2835 45.6863 56.6507 45.6863C56.0312 45.6863 55.7213 46.0028 55.7213 46.6356V51.4607C55.7213 52.6078 55.4181 53.4713 54.8117 54.0513C54.2053 54.6315 53.3549 54.9214 52.2606 54.9214H47.396C46.7499 54.9214 46.427 55.2379 46.427 55.8707C46.427 56.4903 46.7499 56.8001 47.396 56.8001Z" fill="white"/>
<path d="M57.6 31.7844C57.6 32.4172 57.2835 32.7336 56.6507 32.7336C56.0312 32.7336 55.7213 32.4172 55.7213 31.7844V26.9592C55.7213 25.8122 55.4181 24.9487 54.8117 24.3686C54.2053 23.7886 53.3549 23.4985 52.2606 23.4985H47.396C46.7499 23.4985 46.4269 23.1821 46.4269 22.5493C46.4269 21.9165 46.7499 21.6001 47.396 21.6001H52.32C54.0602 21.6001 55.372 22.0483 56.2552 22.9448C57.1517 23.8281 57.6 25.1333 57.6 26.8603V31.7844Z" fill="white"/>
<path d="M40 51.9999C41.7526 51.9999 43.3989 51.6639 44.9387 50.9917C46.4872 50.3281 47.8485 49.4093 49.0226 48.2353C50.1966 47.0525 51.1197 45.6914 51.7918 44.1514C52.464 42.6031 52.8 40.9525 52.8 39.1999C52.8 37.4473 52.464 35.801 51.7918 34.2611C51.1197 32.7127 50.1966 31.3515 49.0226 30.1774C47.8485 28.9948 46.4872 28.0717 44.9387 27.4081C43.3904 26.736 41.7398 26.3999 39.9872 26.3999C38.2346 26.3999 36.5841 26.736 35.0357 27.4081C33.4958 28.0717 32.1388 28.9948 30.9647 30.1774C29.7906 31.3515 28.8675 32.7127 28.1954 34.2611C27.5318 35.801 27.2 37.4473 27.2 39.1999C27.2 40.9525 27.5318 42.6031 28.1954 44.1514C28.8675 45.6914 29.7906 47.0525 30.9647 48.2353C32.1473 49.4093 33.5085 50.3281 35.0485 50.9917C36.5969 51.6639 38.2474 51.9999 40 51.9999ZM40 50.3537C38.4515 50.3537 37.0053 50.0644 35.661 49.4858C34.3168 48.9073 33.1342 48.1076 32.1133 47.0866C31.0923 46.0657 30.2926 44.8831 29.7141 43.5389C29.144 42.1861 28.859 40.7397 28.859 39.1999C28.859 37.6601 29.144 36.218 29.7141 34.8737C30.2926 33.5209 31.0881 32.3341 32.1005 31.3132C33.1214 30.2837 34.304 29.484 35.6483 28.914C37.001 28.3354 38.4474 28.0462 39.9872 28.0462C41.5357 28.0462 42.9819 28.3354 44.3262 28.914C45.6704 29.484 46.8531 30.2837 47.8739 31.3132C48.9034 32.3341 49.7074 33.5209 50.2859 34.8737C50.8645 36.218 51.1538 37.6601 51.1538 39.1999C51.1538 40.7397 50.8645 42.1861 50.2859 43.5389C49.7158 44.8831 48.9205 46.0657 47.8995 47.0866C46.8786 48.1076 45.6917 48.9073 44.339 49.4858C42.9862 50.0644 41.5398 50.3537 40 50.3537ZM39.9872 45.4786C40.8466 45.4786 41.5995 45.3213 42.2461 45.0065C42.9011 44.6917 43.4074 44.3343 43.7646 43.9345C44.1306 43.5346 44.3134 43.2028 44.3134 42.9391C44.3134 42.8114 44.2624 42.7265 44.1603 42.6839C44.0667 42.6413 43.969 42.6455 43.8667 42.6965C43.4414 42.9858 42.9182 43.2538 42.2971 43.5005C41.676 43.7388 40.9061 43.858 39.9872 43.858C39.0683 43.858 38.2984 43.7388 37.6774 43.5005C37.0648 43.2538 36.5416 42.9858 36.1077 42.6965C36.0056 42.6455 35.9035 42.6413 35.8014 42.6839C35.7078 42.7265 35.661 42.8114 35.661 42.9391C35.661 43.2028 35.8397 43.5346 36.197 43.9345C36.5629 44.3343 37.0733 44.6917 37.7285 45.0065C38.3835 45.3213 39.1365 45.4786 39.9872 45.4786ZM36.1715 38.013C36.5543 38.013 36.8861 37.8557 37.1669 37.5409C37.4562 37.2261 37.6008 36.8305 37.6008 36.354C37.6008 35.8861 37.4562 35.4948 37.1669 35.18C36.8861 34.8567 36.5543 34.695 36.1715 34.695C35.7971 34.695 35.4696 34.8567 35.1888 35.18C34.9166 35.4948 34.7805 35.8861 34.7805 36.354C34.7805 36.8305 34.9208 37.2261 35.2016 37.5409C35.4824 37.8557 35.8057 38.013 36.1715 38.013ZM43.7902 38.013C44.1731 38.013 44.505 37.8557 44.7856 37.5409C45.0664 37.2261 45.2067 36.8305 45.2067 36.354C45.2067 35.8861 45.0664 35.4948 44.7856 35.18C44.505 34.8567 44.1731 34.695 43.7902 34.695C43.4158 34.695 43.0883 34.8567 42.8075 35.18C42.5354 35.4948 42.3992 35.8861 42.3992 36.354C42.3992 36.8305 42.5395 37.2261 42.8203 37.5409C43.1011 37.8557 43.4243 38.013 43.7902 38.013Z" fill="white"/>
<path d="M54.4726 40.7451H25.1273C24.7967 40.7451 24.5261 40.6716 24.3157 40.5244C24.1052 40.3772 24 40.1985 24 39.9883C24 39.7676 24.1052 39.5836 24.3157 39.4364C24.5261 39.2788 24.7967 39.2 25.1273 39.2H54.4726C54.8034 39.2 55.0739 39.2788 55.2843 39.4364C55.4947 39.5836 55.6 39.7676 55.6 39.9883C55.6 40.1985 55.4947 40.3772 55.2843 40.5244C55.0739 40.6716 54.8034 40.7451 54.4726 40.7451Z" fill="#F28532"/>
</svg>
