<svg width="228" height="144" viewBox="0 0 228 144" fill="none" xmlns="http://www.w3.org/2000/svg">
<path opacity="0.1" d="M148.527 83.5601C148.527 105.003 135.968 115.155 120.521 106.228C105.03 97.3008 92.5142 72.6638 92.5142 51.2213C92.5142 29.7788 105.073 19.6265 120.521 28.5535C136.012 37.4806 148.527 62.1176 148.527 83.5601Z" fill="url(#paint0_linear_466_39790)"/>
<path opacity="0.3" d="M107.48 37.3055C91.9886 28.3784 79.4731 38.5308 79.4731 59.9733C79.4731 81.4157 92.0323 106.053 107.48 114.98C122.971 123.907 135.486 113.754 135.486 92.312C135.486 70.8695 122.927 46.2326 107.48 37.3055Z" fill="url(#paint1_linear_466_39790)"/>
<path d="M104.108 96V91.8465C101.22 91.535 98.8303 90.4274 96.9395 88.5237C95.0486 86.5854 94.0688 84.0414 94 80.8916H99.6726C100.016 83.8337 101.495 85.6163 104.108 86.2393V75.2325L102.354 74.5576C96.8535 72.4462 94.1031 68.8984 94.1031 63.9142C94.1031 61.0068 95.0142 58.6877 96.8363 56.9571C98.6928 55.1919 101.117 54.2054 104.108 53.9977V50H106.892V54.1016C109.505 54.4477 111.688 55.5207 113.442 57.3205C115.195 59.0858 116.072 61.2491 116.072 63.8104H110.399C110.021 61.6644 108.852 60.2972 106.892 59.7088V69.9887L108.439 70.6117C111.259 71.7193 113.39 73.1731 114.834 74.9729C116.278 76.7381 117 78.988 117 81.7223C117 84.8375 116.089 87.2777 114.267 89.0429C112.445 90.7735 109.987 91.7254 106.892 91.8984V96H104.108ZM111.327 81.8781C111.327 79.5245 109.849 77.69 106.892 76.3747V86.395C108.199 86.222 109.265 85.7374 110.09 84.9413C110.915 84.1106 111.327 83.0895 111.327 81.8781ZM99.7758 63.8623C99.7758 66.0083 101.22 67.687 104.108 68.8984V59.5011C102.801 59.6742 101.753 60.1588 100.962 60.9549C100.171 61.7509 99.7758 62.7201 99.7758 63.8623Z" fill="white"/>
<defs>
<linearGradient id="paint0_linear_466_39790" x1="126.147" y1="35.3511" x2="113.481" y2="107.481" gradientUnits="userSpaceOnUse">
<stop stop-color="#00312B"/>
<stop offset="0.0001" stop-color="#0C2219"/>
<stop offset="1" stop-color="#001718" stop-opacity="0.01"/>
</linearGradient>
<linearGradient id="paint1_linear_466_39790" x1="107.48" y1="34.0652" x2="107.48" y2="118.22" gradientUnits="userSpaceOnUse">
<stop stop-color="#00312B"/>
<stop offset="1" stop-color="#001718" stop-opacity="0.01"/>
</linearGradient>
</defs>
</svg>
