<svg width="327" height="333" viewBox="0 0 327 333" fill="none" xmlns="http://www.w3.org/2000/svg">
<path d="M326.839 123.882C317.379 88.2908 296.345 56.8584 267.053 34.5379C237.76 12.2175 201.874 0.27777 165.048 0.600105C128.222 0.92244 92.5499 13.4885 63.6525 36.3183C34.7551 59.1481 14.2751 90.9438 5.43947 126.696C-3.3962 162.447 -0.0852607 200.123 14.8506 233.785C29.7864 267.448 55.4981 295.185 87.9344 312.624C120.371 330.064 157.688 336.216 194.005 330.11C230.323 324.005 263.577 305.989 288.528 278.901L287.918 278.339C263.092 305.291 230.004 323.217 193.868 329.292C157.732 335.367 120.601 329.246 88.3273 311.894C56.0532 294.541 30.47 266.943 15.6088 233.449C0.747663 199.955 -2.54672 162.468 6.24477 126.895C15.0363 91.3216 35.4138 59.6849 64.1667 36.9692C92.9196 14.2535 128.413 1.75033 165.055 1.4296C201.697 1.10888 237.404 12.9889 266.55 35.1978C295.696 57.4066 316.625 88.6818 326.037 124.096L326.839 123.882Z" fill="#849E9E"/>
</svg>
