<svg width="528" height="531" viewBox="0 0 528 531" fill="none" xmlns="http://www.w3.org/2000/svg">
<path d="M453.237 77.7631C411.078 35.6045 355.956 8.86292 296.749 1.84545C237.543 -5.17201 177.697 7.9431 126.851 39.0785C76.0052 70.2138 37.1191 117.557 16.4555 173.483C-4.20801 229.409 -5.44612 290.663 12.9406 347.378C31.3274 404.093 68.2687 452.969 117.815 486.134C167.361 519.298 226.628 534.821 286.07 530.202C345.512 525.583 401.669 501.09 445.497 460.67C489.325 420.249 518.272 366.253 527.676 307.378L526.366 307.169C517.008 365.749 488.206 419.475 444.597 459.694C400.989 499.913 345.112 524.282 285.967 528.878C226.822 533.475 167.852 518.03 118.553 485.031C69.2548 452.032 32.4982 403.4 14.2034 346.969C-4.0914 290.537 -2.85949 229.59 17.7007 173.943C38.261 118.297 76.9527 71.1903 127.544 40.2106C178.136 9.23086 237.682 -3.81867 296.593 3.16371C355.504 10.1461 410.35 36.7539 452.298 78.7018L453.237 77.7631Z" fill="#849E9E"/>
</svg>
