<svg width="110" height="141" viewBox="0 0 110 141" fill="none" xmlns="http://www.w3.org/2000/svg">
<g clip-path="url(#clip0_466_39432)">
<path d="M47.658 16.2714C47.6234 16.279 47.5924 16.2981 47.5702 16.3257C47.5479 16.3532 47.5358 16.3876 47.5358 16.423C47.5358 16.4584 47.5479 16.4928 47.5702 16.5204C47.5924 16.548 47.6234 16.5671 47.658 16.5746C48.92 16.7367 49.8506 19.592 48.1304 21.1077C48.1065 21.1279 48.0896 21.155 48.0821 21.1854C48.0746 21.2157 48.0769 21.2476 48.0886 21.2765C48.1004 21.3055 48.1209 21.33 48.1474 21.3465C48.1739 21.363 48.205 21.3708 48.2361 21.3686C48.4899 21.3686 49.7589 20.0643 49.5615 18.4217C49.5433 17.898 49.3434 17.397 48.9961 17.0046C48.6487 16.6122 48.1756 16.353 47.658 16.2714ZM54.6093 23.265C54.232 23.2467 53.8646 23.1378 53.5382 22.9476C53.2119 22.7574 52.936 22.4915 52.734 22.1723C52.7012 22.1175 52.6516 22.0749 52.5926 22.0506C52.5336 22.0263 52.4683 22.0218 52.4065 22.0376C52.3446 22.0535 52.2896 22.0889 52.2495 22.1386C52.2095 22.1882 52.1865 22.2495 52.1841 22.3133C52.1913 22.7386 52.2946 23.1567 52.4863 23.5364C52.678 23.9161 52.9531 24.2475 53.291 24.5058C53.3266 24.5411 53.3747 24.561 53.4249 24.561C53.4751 24.561 53.5232 24.5411 53.5589 24.5058C53.7845 24.252 53.2064 24.2309 52.9103 23.2298C53.1578 23.4079 53.441 23.5304 53.7404 23.5888C54.0397 23.6472 54.3482 23.6402 54.6446 23.5682C54.6848 23.5635 54.7215 23.5431 54.7466 23.5113C54.7717 23.4796 54.7832 23.4392 54.7785 23.399C54.7738 23.3588 54.7534 23.3221 54.7216 23.297C54.6899 23.2719 54.6495 23.2604 54.6093 23.265ZM56.7102 20.2829C55.9418 19.7048 56.0052 18.7178 55.7091 18.7248C55.6749 18.7266 55.6422 18.7392 55.6156 18.7607C55.589 18.7823 55.5699 18.8117 55.5611 18.8447C55.3989 19.4016 56.3436 20.6918 56.5904 20.861C56.8371 21.0302 56.4353 21.143 56.3084 21.1853C56.2702 21.1967 56.2375 21.2217 56.2166 21.2556C56.1957 21.2895 56.188 21.3299 56.1949 21.3691C56.2019 21.4083 56.2231 21.4436 56.2544 21.4682C56.2857 21.4928 56.325 21.505 56.3648 21.5025C56.527 21.4952 56.6835 21.4406 56.815 21.3454C56.9466 21.2502 57.0474 21.1186 57.105 20.9667C57.1403 20.8257 57.105 20.5508 56.7102 20.2829ZM53.1852 18.1256C53.2096 17.6755 53.186 17.2241 53.1147 16.779C53.0929 16.71 53.0471 16.651 52.9855 16.6129C52.924 16.5747 52.8509 16.5598 52.7793 16.5708C52.7077 16.5819 52.6425 16.6182 52.5954 16.6732C52.5483 16.7282 52.5224 16.7983 52.5225 16.8707C52.5142 17.2304 52.4765 17.5888 52.4097 17.9423C52.3998 18.0393 52.4255 18.1366 52.4821 18.2161C52.5386 18.2955 52.6221 18.3517 52.7171 18.3741C52.812 18.3966 52.9118 18.3837 52.9979 18.338C53.0841 18.2923 53.1506 18.2168 53.1852 18.1256ZM58.092 18.33C58.0827 18.6893 58.0474 19.0475 57.9863 19.4016C57.9742 19.4521 57.9722 19.5044 57.9804 19.5557C57.9886 19.6069 58.0068 19.656 58.034 19.7002C58.0612 19.7444 58.0968 19.7828 58.1388 19.8132C58.1808 19.8436 58.2284 19.8655 58.2788 19.8775C58.3293 19.8896 58.3816 19.8915 58.4328 19.8833C58.4841 19.8752 58.5332 19.857 58.5774 19.8298C58.6216 19.8026 58.66 19.767 58.6904 19.725C58.7208 19.683 58.7427 19.6354 58.7547 19.5849C58.7779 19.1351 58.7567 18.6841 58.6913 18.2384C58.6779 18.16 58.6343 18.0899 58.5699 18.0434C58.5054 17.9968 58.4252 17.9775 58.3466 17.9895C58.2679 18.0015 58.1972 18.0439 58.1496 18.1077C58.102 18.1714 58.0813 18.2512 58.092 18.33ZM45.5148 40.5093C50.9663 41.2694 56.5211 40.6738 61.6875 38.775C61.7302 38.7582 61.7646 38.7254 61.7835 38.6836C61.8024 38.6418 61.8042 38.5943 61.7886 38.5511C61.773 38.508 61.7412 38.4726 61.7 38.4526C61.6587 38.4325 61.6112 38.4293 61.5677 38.4437C60.489 38.6552 59.4527 39.0218 58.367 39.2403C47.8695 41.3553 45.4161 39.5505 45.3315 40.2485C45.3243 40.2778 45.3235 40.3084 45.329 40.3381C45.3346 40.3677 45.3465 40.3959 45.3638 40.4206C45.3812 40.4453 45.4037 40.466 45.4297 40.4813C45.4558 40.4966 45.4848 40.5062 45.5148 40.5093ZM43.8933 31.9224C43.9638 31.9224 45.5078 31.6757 45.8955 31.5911C46.1705 31.5347 46.0788 31.1328 45.7968 31.161C45.0284 31.2809 44.6054 31.4078 43.844 31.5417C43.819 31.545 43.7948 31.5531 43.773 31.5657C43.7511 31.5782 43.732 31.595 43.7166 31.6149C43.6855 31.6553 43.6717 31.7063 43.6783 31.7568C43.6848 31.8073 43.7112 31.8531 43.7515 31.8841C43.7918 31.9152 43.8428 31.929 43.8933 31.9224ZM55.9347 36.0749C57.5582 36.122 59.18 35.9344 60.7499 35.5179C60.8153 35.5002 60.871 35.4571 60.9047 35.3983C60.9384 35.3395 60.9474 35.2697 60.9296 35.2042C60.9119 35.1388 60.8688 35.0831 60.81 35.0494C60.7512 35.0156 60.6814 35.0067 60.6159 35.0244C59.0907 35.446 57.517 35.6664 55.9347 35.6801C55.8824 35.6801 55.8321 35.7009 55.7951 35.7379C55.7581 35.7749 55.7373 35.8251 55.7373 35.8775C55.7373 35.9298 55.7581 35.9801 55.7951 36.0171C55.8321 36.0541 55.8824 36.0749 55.9347 36.0749ZM56.8019 33.7061C57.8904 33.97 59.035 33.8761 60.066 33.4382C60.3833 33.3183 60.2352 32.8107 59.9109 32.9376C58.969 33.3746 57.9152 33.51 56.8935 33.3254C56.8458 33.3202 56.7978 33.3326 56.7586 33.3602C56.7193 33.3878 56.6915 33.4288 56.6802 33.4754C56.669 33.5221 56.6752 33.5712 56.6975 33.6137C56.7199 33.6562 56.757 33.689 56.8019 33.7061ZM54.285 132.039C53.7806 132.084 53.3057 132.297 52.9364 132.643C52.567 132.989 52.3245 133.45 52.2476 133.95C51.9938 135.572 53.573 137.362 55.3002 136.77C57.8946 135.825 56.6891 131.786 54.285 132.039ZM53.1641 134.246C53.1785 133.938 53.2973 133.644 53.501 133.412C53.7047 133.18 53.9811 133.024 54.285 132.97C55.4201 132.716 56.1885 134.253 55.8008 135.24C54.9407 136.77 53.157 135.79 53.157 134.246H53.1641ZM66.3123 13.5854C66.3653 14.5052 66.2773 15.4276 66.0515 16.3208C66.1008 16.3913 65.4522 16.3208 76.0554 16.6028C76.4487 16.5651 76.8454 16.6153 77.2169 16.7497C77.5884 16.8842 77.9253 17.0996 78.2033 17.3803C78.4813 17.661 78.6934 18 78.8243 18.3727C78.9552 18.7455 79.0015 19.1427 78.96 19.5356C79.2491 39.6422 79.1574 38.9936 79.4042 38.8173C80.8142 37.788 80.8917 37.788 80.9129 37.7175C81.0192 37.3874 81.1906 37.0818 81.4171 36.8191C81.6435 36.5563 81.9203 36.3416 82.2312 36.1877C82.3229 36.1383 82.3158 37.6329 81.9563 15.1364C81.7858 13.9603 81.2059 12.8821 80.3187 12.0916C79.4314 11.3011 78.2937 10.8489 77.1059 10.8147C73.461 10.7724 65.1209 10.7795 65.1209 10.7795C65.1006 10.7797 65.0807 10.7858 65.0638 10.797C65.0469 10.8082 65.0335 10.8241 65.0253 10.8426C65.0172 10.8612 65.0145 10.8818 65.0177 10.9018C65.0209 10.9219 65.0298 10.9406 65.0433 10.9557C65.7168 11.6877 66.1584 12.6027 66.3123 13.5854ZM69.9008 69.795C69.9955 69.7823 70.0824 69.7356 70.1453 69.6637C70.2082 69.5917 70.2429 69.4994 70.2429 69.4038C70.2429 69.3082 70.2082 69.2158 70.1453 69.1439C70.0824 69.0719 69.9955 69.0252 69.9008 69.0125C69.9008 69.0125 42.575 69.0125 40.608 69.0971C40.5097 69.1101 40.4195 69.1584 40.3541 69.2329C40.2887 69.3075 40.2527 69.4033 40.2527 69.5025C40.2527 69.6016 40.2887 69.6974 40.3541 69.772C40.4195 69.8466 40.5097 69.8949 40.608 69.9078C67.7999 70.3379 66.0374 69.8303 69.9008 69.795ZM71.2403 73.4681C67.9338 73.4681 44.1471 73.4681 41.9475 73.5879C41.8372 73.5879 41.7314 73.6318 41.6534 73.7098C41.5754 73.7878 41.5316 73.8936 41.5316 74.0039C41.5316 74.1142 41.5754 74.22 41.6534 74.298C41.7314 74.376 41.8372 74.4198 41.9475 74.4198C42.1943 74.4198 69.6117 74.2718 71.2403 74.2506C71.335 74.2379 71.4219 74.1912 71.4848 74.1193C71.5477 74.0473 71.5824 73.955 71.5824 73.8594C71.5824 73.7638 71.5477 73.6714 71.4848 73.5995C71.4219 73.5275 71.335 73.4808 71.2403 73.4681ZM44.0273 78.7626C43.9272 78.7758 43.8352 78.8248 43.7687 78.9007C43.7021 78.9766 43.6653 79.0741 43.6653 79.1751C43.6653 79.276 43.7021 79.3735 43.7687 79.4494C43.8352 79.5253 43.9272 79.5744 44.0273 79.5875L70.0347 79.2068C70.1432 79.2068 70.2472 79.1637 70.3238 79.087C70.4005 79.0104 70.4436 78.9063 70.4436 78.7979C70.4436 78.6894 70.4005 78.5854 70.3238 78.5088C70.2472 78.4321 70.1432 78.389 70.0347 78.389C66.8058 78.396 45.9308 78.6217 44.0273 78.7626ZM100.611 11.5127C100.404 11.5108 100.198 11.5502 100.007 11.6285C99.8151 11.7069 99.641 11.8226 99.4947 11.969C99.3483 12.1153 99.2326 12.2894 99.1543 12.481C99.0759 12.6726 99.0365 12.8779 99.0384 13.0848C99.0384 13.5018 99.204 13.9017 99.4989 14.1965C99.7937 14.4914 100.194 14.657 100.611 14.657C101.028 14.657 101.427 14.4914 101.722 14.1965C102.017 13.9017 102.183 13.5018 102.183 13.0848C102.185 12.8779 102.145 12.6726 102.067 12.481C101.989 12.2894 101.873 12.1153 101.726 11.969C101.58 11.8226 101.406 11.7069 101.214 11.6285C101.023 11.5502 100.818 11.5108 100.611 11.5127ZM107.033 14.6499C107.344 14.6542 107.648 14.566 107.909 14.3966C108.169 14.2271 108.373 13.984 108.495 13.6983C108.616 13.4126 108.65 13.0971 108.592 12.792C108.534 12.4869 108.386 12.206 108.168 11.985C108.02 11.8346 107.843 11.715 107.648 11.6335C107.453 11.5519 107.244 11.5099 107.033 11.5099C106.822 11.5099 106.613 11.5519 106.418 11.6335C106.223 11.715 106.046 11.8346 105.898 11.985C105.68 12.206 105.532 12.4869 105.474 12.792C105.416 13.0971 105.45 13.4126 105.572 13.6983C105.693 13.984 105.897 14.2271 106.157 14.3966C106.418 14.566 106.723 14.6542 107.033 14.6499ZM113.456 14.6499C113.766 14.6542 114.071 14.566 114.331 14.3966C114.592 14.2271 114.796 13.984 114.917 13.6983C115.039 13.4126 115.073 13.0971 115.015 12.792C114.957 12.4869 114.809 12.206 114.591 11.985C114.443 11.8348 114.267 11.7154 114.073 11.6339C113.878 11.5524 113.67 11.5105 113.459 11.5105C113.249 11.5105 113.04 11.5524 112.846 11.6339C112.651 11.7154 112.475 11.8348 112.328 11.985C112.11 12.2056 111.962 12.4858 111.904 12.7902C111.846 13.0946 111.879 13.4095 112 13.695C112.121 13.9804 112.324 14.2236 112.583 14.3936C112.842 14.5636 113.146 14.6528 113.456 14.6499Z" fill="black"/>
<path d="M124.419 8.98874C124.306 5.49899 122.712 3.68009 119.406 3.27824C117.784 3.07379 91.2553 3.71534 91.0227 3.72239C88.2732 3.85634 87.1593 6.76799 87.3637 9.46109C87.3637 11.6959 87.4695 19.042 87.5893 19.888C87.6384 20.6456 87.9857 21.3529 88.5552 21.855C90.3036 23.131 92.7076 22.7433 94.7239 22.6798C94.59 24.675 92.6089 26.0145 90.9099 26.8041C90.8246 26.8481 90.7562 26.9189 90.7152 27.0056C90.6742 27.0923 90.6628 27.1901 90.6829 27.2838C90.7029 27.3776 90.7533 27.4622 90.8261 27.5246C90.899 27.587 90.9904 27.6236 91.0861 27.6289C92.9312 27.7443 94.7707 27.328 96.3864 26.4296C98.0021 25.5311 99.3262 24.1882 100.202 22.56C110.41 22.0665 120.492 22.849 122.994 20.5789C125.307 18.4569 124.524 12.0414 124.419 8.98874ZM99.4615 21.996C98.8139 23.2191 97.8897 24.2741 96.7624 25.077C95.6352 25.8799 94.3361 26.4085 92.9685 26.6208C94.2304 25.7677 95.7391 24.3013 95.5699 22.2639C95.5781 22.2041 95.5732 22.1433 95.5556 22.0856C95.5379 22.0279 95.5079 21.9748 95.4677 21.9299C95.4275 21.8849 95.3779 21.8493 95.3225 21.8254C95.2671 21.8015 95.2072 21.79 95.1469 21.7915C93.3703 21.7563 90.4516 22.2921 89.0769 21.0865C88.2591 20.3815 88.3719 19.2606 88.3014 9.30599C88.1816 8.09784 88.4429 6.8825 89.0487 5.83034C89.2269 5.54671 89.4595 5.30107 89.7329 5.1075C90.0063 4.91393 90.3152 4.77624 90.642 4.70234C91.6854 4.58249 117.03 4.13129 117.03 4.13129C121.45 4.06079 123.375 5.04074 123.502 9.35534C123.791 17.491 123.798 20.0784 120.4 20.6988C116.001 21.4954 105.736 21.3121 99.955 21.5941C99.8379 21.5892 99.7229 21.6273 99.632 21.7014C99.541 21.7754 99.4804 21.8802 99.4615 21.996ZM92.193 111.975C92.1653 111.924 92.1267 111.879 92.0801 111.844C92.0334 111.809 91.9797 111.785 91.9227 111.773C91.8657 111.761 91.8067 111.761 91.7499 111.774C91.6931 111.787 91.6398 111.813 91.5937 111.848L89.1474 113.033C91.5195 108.716 92.7339 103.858 92.6724 98.9326C92.2 94.8507 90.642 90.8886 89.4858 87.0322C88.3296 83.1759 86.0383 76.4572 83.0421 72.2766C82.9293 67.6518 82.5063 49.921 82.3935 45.3667C82.3946 45.3416 82.3867 45.317 82.3713 45.2972C82.3558 45.2774 82.3338 45.2637 82.3092 45.2586C82.2847 45.2535 82.259 45.2573 82.237 45.2694C82.215 45.2815 82.198 45.301 82.189 45.3244C81.4577 46.8514 80.5259 48.2739 79.4184 49.5544C79.3549 49.6249 79.4184 48.8847 79.644 69.0195C78.7953 68.5679 77.8042 68.4642 76.8804 68.7304C76.3138 68.9663 75.8035 69.3194 75.3831 69.7666C74.9627 70.2137 74.6416 70.7448 74.4411 71.3248C73.5528 74.0179 75.3223 79.6791 76.0696 85.0582C76.7041 89.6407 76.8874 91.932 75.2025 94.7872C75.3402 93.8119 75.2752 92.8187 75.0117 91.8696C74.7481 90.9205 74.2917 90.0359 73.6708 89.2712C73.05 88.5065 72.2781 87.8781 71.4034 87.4252C70.5287 86.9723 69.57 86.7047 68.5872 86.6391C67.6044 86.5735 66.6186 86.7113 65.6914 87.0438C64.7643 87.3764 63.9157 87.8967 63.1987 88.5721C62.4817 89.2475 61.9117 90.0635 61.5243 90.9691C61.137 91.8747 60.9406 92.8505 60.9474 93.8355C61.0602 99.4755 66.1855 102.006 70.5354 100.575L68.1313 103.311C60.3199 103.311 35.1655 103.353 35.1655 103.353C34.7694 103.385 34.3711 103.333 33.9959 103.202C33.6208 103.071 33.2772 102.863 32.9871 102.592C31.5771 101.041 31.9014 96.9516 32.0142 94.7027C33.1704 95.4076 34.2631 96.1126 35.652 96.0139C38.4156 103.656 49.4065 102.07 49.5757 93.8355C49.6815 88.7877 43.5198 84.5365 38.4579 87.8641C37.6167 86.4862 36.5948 85.2272 35.4193 84.1206C36.921 84.5506 39.0783 84.9877 40.4037 84.4519C42.2931 83.6905 42.7795 81.3006 42.138 79.5169C40.4742 74.8851 36.8787 71.3812 33.6357 68.4625C32.8461 67.7575 32.0847 67.116 31.3303 66.5308C31.4572 61.335 32.0917 28.7922 32.4301 17.8083C32.4903 17.0912 32.7995 16.4177 33.3043 15.9048C33.4907 15.7258 33.7124 15.5876 33.9551 15.499C34.1979 15.4104 34.4564 15.3733 34.7143 15.3901C36.0679 15.4465 39.3603 15.5311 39.889 15.5523C39.9126 15.5489 39.9348 15.5392 39.9534 15.5243C39.972 15.5095 39.9862 15.4899 39.9948 15.4677C40.2124 14.7723 40.5767 14.1317 41.0632 13.5892C41.5498 13.0468 42.1471 12.6151 42.8148 12.3234C42.8345 12.3159 42.8513 12.3023 42.8628 12.2845C42.8742 12.2667 42.8796 12.2458 42.8782 12.2247C42.8782 10.1097 42.9276 10.1097 42.7795 10.1097C39.4237 10.0039 36.6601 9.86999 33.3607 9.86999C32.4119 9.90442 31.5046 10.268 30.7945 10.8983C30.0844 11.5286 29.6158 12.3864 29.4691 13.3245L29.0461 52.6635C27.7049 51.344 26.2597 50.1345 24.7245 49.0468C22.2288 47.2138 20.0715 46.7485 18.3019 47.6368C15.1365 49.2865 16.4266 53.157 18.168 56.2872C19.8389 59.2849 22.1264 61.8944 24.8796 63.9435C23.3497 64.6485 22.6447 66.411 21.9115 67.9549C20.3535 71.205 22.2217 73.327 24.379 75.8439C22.969 76.1188 22.3839 77.839 21.975 79.0305C20.6848 82.8022 21.27 85.8478 24.9289 89.1613C26.3389 90.4444 27.6432 91.5372 28.8699 92.4889L28.5808 111.982C28.4257 116.494 31.14 118.623 35.6308 118.264C36.3358 118.207 38.5425 118.193 42.138 118.221C44.7042 123.086 47.8485 127.492 52.7694 128.959C51.2325 129.48 48.3349 130.467 47.0589 130.911C46.9583 130.948 46.8755 131.022 46.8271 131.117C46.7787 131.213 46.7683 131.323 46.798 131.426C47.362 133.393 48.0328 135.327 48.8073 137.221C49.188 138.004 49.5969 137.863 49.4136 136.974C49.2514 136.199 48.7086 134.648 47.6863 131.595C56.0617 129.48 87.9066 115.07 91.6924 112.715C92.5948 114.337 94.8508 119.06 97.0293 123.636C100.279 130.446 101.358 132.681 101.809 133.365C102.155 133.872 102.465 133.471 102.373 133.231C101.788 131.722 92.9191 113.294 92.193 111.975ZM41.7009 96.3876C42.5572 96.0683 43.2783 95.4653 43.7439 94.6789C44.2096 93.8925 44.3917 92.9703 44.26 92.0659C43.8607 92.1222 43.4538 92.0881 43.0695 91.966C42.6851 91.844 42.333 91.6372 42.0393 91.3609C41.7855 90.804 42.6385 89.112 43.6044 88.9287C44.4081 88.7736 45.2188 89.8734 45.5713 90.5502C47.214 93.6804 44.6337 97.9174 41.3413 98.136C40.3896 98.1924 38.7751 97.9668 38.5213 97.0503C38.2675 96.1338 39.5506 94.7379 40.2979 94.893C40.7421 94.9071 41.5105 96.0774 41.7009 96.3876ZM18.0129 54.0312C15.6652 48.5181 19.6837 46.6639 23.7798 49.498C25.679 50.8119 27.4369 52.3192 29.025 53.9959L28.9051 64.86C27.9534 64.2466 26.9734 63.6051 25.8313 63.7108C22.3885 61.2606 19.6841 57.9124 18.0129 54.0312ZM24.1675 74.2576C21.8481 71.5222 21.7212 69.9007 23.5894 66.7141C24.4425 64.9728 25.782 64.0492 27.4528 65.0574C35.0527 69.6399 44.4715 79.9752 40.6927 83.3874C40.0371 83.9725 39.0289 83.9584 38.1336 83.902C31.9648 83.472 27.4951 78.1492 24.1675 74.2576ZM27.0792 89.8875C23.0748 86.4894 21.0655 83.895 23.0113 78.8331C23.1735 78.4101 23.5401 77.1834 24.2733 76.7956C24.402 76.722 24.546 76.6792 24.694 76.6707C24.842 76.6621 24.99 76.688 25.1263 76.7463C30.019 82.0197 32.7544 83.3028 33.4383 83.5425C34.7232 84.4892 35.8571 85.6255 36.8011 86.9124C38.5213 89.3658 40.4742 92.1365 37.6189 94.2726C36.9446 94.8163 36.1153 95.1322 35.2501 95.175C33.1986 95.0834 28.9051 91.4385 27.0792 89.8875ZM70.2534 95.4429C70.1335 95.1186 70.2534 94.8225 70.4578 94.2373C70.5639 93.959 70.6887 93.6881 70.8315 93.4266C70.1269 92.8449 69.244 92.5227 68.3304 92.5137C67.4168 92.5047 66.5278 92.8096 65.8119 93.3772C66.0586 93.696 66.2305 94.0662 66.3147 94.4604C66.3989 94.8546 66.3933 95.2626 66.2983 95.6544C65.967 96.1338 64.0635 96.2889 63.4149 95.5275C62.5054 94.4629 64.3384 90.7123 68.3499 90.7828C68.4697 90.7828 71.1699 90.8604 72.5799 92.8978C73.1157 93.6874 73.7149 95.2032 73.0663 95.887C72.4177 96.5709 70.5495 96.2254 70.2534 95.4429ZM48.9342 106.187C52.9413 105.806 56.9755 105.806 60.9826 106.187C61.7441 108.994 61.7441 111.953 60.9826 114.76C56.98 115.183 52.9439 115.183 48.9412 114.76C48.3079 111.938 48.3055 109.01 48.9342 106.187ZM54.1653 128.493C48.9906 127.358 45.6489 122.917 43.1109 118.257C48.0459 118.299 55.2298 118.503 64.7121 118.595C64.7287 118.596 64.7452 118.592 64.7603 118.585C64.7754 118.578 64.7886 118.568 64.7989 118.555C64.8092 118.542 64.8163 118.527 64.8196 118.51C64.8229 118.494 64.8223 118.477 64.8178 118.461C63.7039 114.619 64.5147 109.931 66.6931 106.37C67.1091 105.898 71.8749 100.554 72.3331 100.025C75.6678 96.3735 77.7687 93.8355 77.4655 89.0697C76.7605 78.3819 72.8548 71.8888 76.965 69.7668C83.592 67.4614 89.9511 91.0789 91.6008 97.9668C92.3481 104.354 89.4858 110.544 87.7233 113.709C85.2135 114.915 56.0265 127.746 54.1653 128.493Z" fill="black"/>
<path d="M66.799 10.9274L42.4765 10.2224L39.6565 15.3337L66.799 16.2149V10.9274Z" fill="black"/>
<path d="M41.7715 10.7512L42.4765 10.2224M42.4765 10.2224L66.799 10.9274V16.2149L39.6565 15.3337L42.4765 10.2224Z" stroke="black"/>
<rect x="38.4229" y="16.2151" width="28.2" height="34.8975" fill="#F7F8F9"/>
<path d="M79.4883 49.7026V38.5988L82.132 35.9551L82.3083 45.2963L79.4883 49.7026Z" fill="black" stroke="black"/>
<path d="M38.9512 66.9751H74.0249V80.7226H43.3574L38.9512 66.9751Z" fill="#F7F8F9"/>
<path d="M75.2588 94C73.4963 95.0575 70.1412 100.077 70.0002 100.5L65.2125 101.52L59.5725 98.8762V91.4737L62.5688 85.6575L75.2588 87.0675V94Z" fill="white" stroke="white"/>
<path d="M40.0088 91.1213C40.0088 89.8875 38.5988 87.7725 38.5988 87.7725L39.6563 86.5388L43.71 86.01L47.5875 88.125L50.2313 91.1213L50.4075 94.9988L48.9975 99.405L45.2963 101.873L37.5413 100.463L35.6025 96.2325L36.3075 96.0563C36.3075 96.0563 37.8938 95.7038 38.4225 95.175C38.9513 94.6463 39.3038 93.9413 39.48 93.5888C39.6563 93.2363 40.0088 92.355 40.0088 91.1213Z" fill="white" stroke="white"/>
<rect x="85.3047" y="2.11499" width="39.48" height="26.4375" fill="#F7F8F9"/>
<g clip-path="url(#clip1_466_39432)">
<g clip-path="url(#clip2_466_39432)">
<path d="M47.5999 35.2581C47.4404 36.5352 47.4877 37.8282 47.7399 39.0915C47.5682 39.3708 47.4733 39.6872 47.464 40.0112C47.4547 40.3353 47.5312 40.6563 47.6865 40.9442C48.0354 41.5413 48.5655 42.0226 49.2065 42.3242C49.8732 44.292 50.6199 46.5281 52.4932 47.7484C52.3466 48.1956 51.8265 49.7545 51.6932 50.2656L51.3332 50.1251C51.2532 50.1251 51.3332 50.0739 50.0532 51.0195C45.9799 52.0737 43.7532 53.8562 41.4266 56.9292C40.5402 58.0926 39.7468 59.3185 39.0532 60.5964C39.0413 60.6186 39.0387 60.6442 39.0462 60.6681C39.0537 60.6919 39.0705 60.7121 39.0932 60.7242C39.3399 60.8456 39.3065 60.0853 41.6865 57.1081C44.0665 54.1309 46.1132 52.5464 49.8666 51.5306C50.1132 51.6967 53.8666 54.2587 54.2399 54.3864C54.7332 54.5717 55.1865 53.6326 55.4132 53.1087C55.3532 56.0539 55.4999 59.2612 55.6865 61.6123C55.6922 61.6327 55.7047 61.6508 55.7222 61.6637C55.7397 61.6766 55.7612 61.6836 55.7832 61.6836C55.8053 61.6836 55.8267 61.6766 55.8442 61.6637C55.8617 61.6508 55.8742 61.6327 55.8799 61.6123C56.0199 58.4753 55.8332 54.5845 55.7399 53.4153C55.6266 52.0928 55.5332 52.6742 56.2932 53.7731C56.4999 54.067 56.8066 54.4503 57.1399 54.3098C57.4732 54.1692 61.1399 51.422 61.2732 51.3006C62.6013 51.6758 63.8639 52.2378 65.0199 52.9681C66.8445 54.1842 68.4519 55.675 69.7799 57.3828C71.6199 59.7276 71.5332 60.4495 71.7799 60.3537C71.8033 60.3438 71.8218 60.3257 71.8318 60.3031C71.8417 60.2806 71.8422 60.2552 71.8332 60.2323C70.3709 57.1945 68.1133 54.571 65.2799 52.6167C64.0524 51.825 62.7026 51.2235 61.2799 50.8342C59.7065 49.7801 59.9465 49.8503 59.6732 49.9653C59.4532 49.3264 59.0999 48.3681 58.6865 47.4098C59.3305 46.8825 59.8488 46.2289 60.2065 45.4931C60.7235 44.3604 61.0282 43.1493 61.1066 41.9153C61.4412 41.6814 61.713 41.3747 61.8996 41.0203C62.0862 40.666 62.1823 40.2742 62.1799 39.8773C62.1799 39.5131 62.1799 39.6473 62.2465 39.5451C62.3514 39.3712 62.4363 39.187 62.4999 38.9956C62.7875 38.24 62.8968 37.4327 62.8199 36.6317C62.8199 34.2359 62.2999 32.2617 60.0265 31.2012C59.2448 30.8427 58.4331 30.5478 57.5999 30.3195C56.1141 30.074 54.5942 30.0869 53.1132 30.3578C50.1399 31.0926 48.0599 32.3576 47.5999 35.2581ZM54.3599 53.9584C54.2332 53.8881 50.4332 51.5178 50.1332 51.3389L51.2799 50.3423L55.2799 52.2589C55.0617 52.8656 54.7518 53.4382 54.3599 53.9584ZM59.8332 50.1251L61.0265 51.0706C60.7332 51.2623 57.0665 53.8114 56.9465 53.8945C56.534 53.3917 56.1994 52.8343 55.9532 52.2398C55.9999 52.2398 57.9532 51.1217 59.0799 50.5339L59.8332 50.1251ZM61.7132 39.8389C61.7221 40.1896 61.6396 40.5368 61.4731 40.8492C61.3067 41.1616 61.0615 41.4292 60.7599 41.6278C60.6532 41.7173 60.6666 41.8706 60.6399 42.1389C60.4732 44.0173 59.8866 46.0553 58.3666 47.2501C58.1532 47.4098 58.5065 47.6078 59.3932 50.0867C58.3265 50.6298 56.6132 51.3645 55.6865 51.882C55.5865 51.9395 55.6399 51.9395 55.5132 51.882C54.5132 51.3773 53.2466 50.9556 51.9599 50.3806C52.0466 50.0931 52.6666 48.2787 52.8466 47.7548C52.9532 47.4481 52.1466 47.5184 51.0532 45.7231C50.0732 44.1131 49.7199 42.2092 49.5199 42.0623C49.3199 41.9153 47.5932 41.1806 47.9999 39.6026C48.0113 39.5376 48.0375 39.4759 48.0767 39.4217C48.1159 39.3676 48.167 39.3225 48.2265 39.2895C48.5065 39.2895 48.7399 39.2128 48.8932 39.2065C49.0465 39.2001 48.9532 39.2064 49.2199 39.4301C49.6466 39.807 49.9465 39.6537 50.0199 39.2767C50.1999 38.3887 50.3399 36.012 50.6399 35.1623C50.7266 34.9323 50.5999 35.1176 51.4532 35.2262C53.5199 35.4817 57.9599 34.9195 59.4999 34.779C59.8332 35.3348 60.0466 38.3312 60.2532 38.6889C60.2783 38.7435 60.3233 38.7873 60.3799 38.812C60.4364 38.8367 60.5005 38.8407 60.5599 38.8231C60.67 38.7682 60.792 38.7387 60.9161 38.7372C61.0402 38.7357 61.1629 38.7621 61.2745 38.8143C61.386 38.8665 61.4832 38.943 61.5582 39.0378C61.6333 39.1325 61.6841 39.2428 61.7065 39.3598C61.722 39.5169 61.7242 39.675 61.7132 39.8326V39.8389Z" fill="black"/>
<path d="M58.5401 38.2737C58.3336 38.2607 58.1265 38.2607 57.9201 38.2737C57.6534 38.2737 57.0267 38.4653 57.0801 38.6251C57.1334 38.7848 59.3934 38.7273 59.4268 38.6251C59.5201 38.4653 58.8668 38.2992 58.5401 38.2737ZM52.4467 38.3503C52.2404 38.3345 52.0331 38.3345 51.8268 38.3503C51.5601 38.3503 50.9334 38.5292 50.9867 38.6953C51.0401 38.8614 53.3001 38.8039 53.3401 38.6953C53.4268 38.542 52.7801 38.3759 52.4467 38.3503ZM52.7334 39.9539C52.7239 39.8987 52.6941 39.8486 52.6496 39.8124C52.605 39.7762 52.5485 39.7563 52.4901 39.7563C52.4317 39.7563 52.3752 39.7762 52.3306 39.8124C52.286 39.8486 52.2563 39.8987 52.2467 39.9539V40.4714C52.2467 40.5324 52.272 40.591 52.317 40.6341C52.3621 40.6772 52.4231 40.7014 52.4867 40.7014C52.5504 40.7014 52.6115 40.6772 52.6565 40.6341C52.7015 40.591 52.7267 40.5324 52.7267 40.4714C52.7401 40.3437 52.7401 40.0881 52.7334 39.9539ZM54.8401 42.912C55.0201 43.3784 55.7801 43.1867 56.2601 42.912C56.2783 42.8994 56.2915 42.8814 56.2977 42.8607C56.3039 42.8401 56.3027 42.818 56.2942 42.7981C56.2857 42.7782 56.2705 42.7616 56.2511 42.751C56.2316 42.7404 56.2089 42.7363 56.1868 42.7395C55.8902 42.8191 55.5766 42.8191 55.2801 42.7395C55.1734 41.1423 55.2801 41.7748 55.1401 39.9987C55.1401 39.9028 54.9801 39.8198 54.9467 39.9987C54.7322 40.9562 54.6961 41.9425 54.8401 42.912ZM58.2867 39.7559C58.2772 39.7007 58.2475 39.6505 58.2029 39.6143C58.1584 39.5781 58.1018 39.5582 58.0434 39.5582C57.985 39.5582 57.9285 39.5781 57.8839 39.6143C57.8394 39.6505 57.8097 39.7007 57.8001 39.7559V40.267C57.8097 40.3222 57.8394 40.3724 57.8839 40.4086C57.9285 40.4448 57.985 40.4647 58.0434 40.4647C58.1018 40.4647 58.1584 40.4448 58.2029 40.4086C58.2475 40.3724 58.2772 40.3222 58.2867 40.267C58.2934 40.2031 58.2867 39.8389 58.2867 39.7559ZM55.7067 44.6434C55.4534 44.6434 54.3734 44.6051 54.3268 44.7648C54.2801 44.9245 55.4134 45.2823 56.2734 45.0331C56.3934 44.9948 56.9401 44.7967 56.9401 44.6626C56.9401 44.5284 56.8867 44.6051 55.7067 44.6434ZM6.09341 42.2476C6.09341 42.0623 5.29342 42.0112 4.98008 42.0303C4.66675 42.0495 3.89342 42.222 3.90675 42.3753C3.93342 42.6373 6.08008 42.4584 6.09341 42.2476ZM5.26675 43.059C5.16008 43.1037 5.08009 43.142 5.08009 43.8512C5.08009 43.9122 5.10537 43.9707 5.15038 44.0138C5.19538 44.0569 5.25643 44.0812 5.32008 44.0812C5.38374 44.0812 5.44478 44.0569 5.48979 44.0138C5.5348 43.9707 5.56008 43.9122 5.56008 43.8512V43.3656C5.57729 43.3253 5.58218 43.281 5.57417 43.2381C5.56616 43.1952 5.54558 43.1553 5.51484 43.1232C5.48409 43.091 5.44444 43.0679 5.40052 43.0566C5.35659 43.0452 5.3102 43.046 5.26675 43.059ZM9.13342 45.9851C9.15474 45.9796 9.1736 45.9676 9.18706 45.9509C9.20052 45.9341 9.20781 45.9136 9.20781 45.8924C9.20781 45.8713 9.20052 45.8507 9.18706 45.834C9.1736 45.8172 9.15474 45.8052 9.13342 45.7998C8.93341 45.7998 8.66675 45.7487 8.46675 45.704C8.39435 45.6843 8.32313 45.6608 8.25341 45.6337C8.20008 45.4548 8.31342 43.2378 8.18675 42.6756C8.18675 42.5478 8.02008 42.4712 7.97342 42.7778C7.92675 43.0845 7.86675 43.3209 7.81342 43.8639C7.73168 44.5004 7.73168 45.1441 7.81342 45.7806C8.00008 46.1831 8.66675 46.0298 9.13342 45.9851ZM11.4201 42.2923C11.6334 42.2923 12.3001 42.2028 12.2934 42.0495C12.2868 41.8962 11.4734 41.8195 11.2334 41.8195C10.9934 41.8195 10.1534 41.8706 10.1601 42.0495C10.1667 42.2284 11.1534 42.2987 11.4201 42.2923ZM10.9734 43.1548C10.9792 43.1218 10.9774 43.088 10.9682 43.0558C10.959 43.0235 10.9425 42.9936 10.92 42.9681C10.8975 42.9425 10.8694 42.922 10.8378 42.9079C10.8061 42.8939 10.7716 42.8866 10.7368 42.8866C10.7019 42.8866 10.6674 42.8939 10.6357 42.9079C10.6041 42.922 10.576 42.9425 10.5535 42.9681C10.531 42.9936 10.5145 43.0235 10.5053 43.0558C10.4961 43.088 10.4943 43.1218 10.5001 43.1548C10.5001 43.4359 10.5001 43.6403 10.5401 43.7937C10.5388 43.8265 10.5449 43.8591 10.5579 43.8895C10.5709 43.9199 10.5906 43.9472 10.6155 43.9697C10.6405 43.9922 10.6701 44.0093 10.7026 44.0199C10.735 44.0304 10.7694 44.0342 10.8035 44.031C10.8376 44.0278 10.8705 44.0176 10.9002 44.0012C10.9298 43.9847 10.9554 43.9624 10.9753 43.9357C10.9952 43.909 11.0089 43.8785 11.0155 43.8463C11.022 43.8141 11.0213 43.7809 11.0134 43.7489C11.0001 43.6276 10.9934 43.4423 10.9734 43.1548ZM8.45341 48.2659C8.45341 48.4512 9.34675 48.4831 9.82675 48.1253C10.0667 47.9465 10.3001 47.4864 10.1734 47.4098C10.0468 47.3331 10.1067 47.4098 9.56008 47.7612C9.17341 47.9912 8.44008 48.1062 8.45341 48.2659ZM-32.8066 58.207C-32.9799 57.632 -33.2266 56.8973 -33.4266 56.3287C-32.6801 55.7791 -32.047 55.1009 -31.5599 54.329C-31.6599 55.1531 -31.6066 55.2553 -31.4666 55.5365C-31.719 55.8075 -31.9198 56.1189 -32.0599 56.4565C-32.2666 57.0123 -31.9066 57.4212 -31.2533 57.2934C-30.5999 57.1656 -30.5866 56.3223 -30.3333 56.0667C-30.0199 56.0667 -29.8066 56.0667 -29.4466 55.4726C-29.2252 54.9351 -29.0773 54.3725 -29.0066 53.7987C-28.5066 53.3433 -28.1351 52.774 -27.9266 52.144C-27.7238 51.6613 -27.6796 51.1308 -27.7999 50.6234C-27.6803 50.4685 -27.5879 50.2958 -27.5266 50.1123C-27.2266 49.269 -27.0666 47.9592 -27.6199 47.2756C-27.7199 47.1606 -27.9199 46.9817 -28.0666 47.0009C-27.9901 46.7593 -27.9388 46.5111 -27.9132 46.2598C-27.9999 45.3462 -28.2599 44.5859 -29.1466 44.2281C-29.2066 44.2281 -29.5666 44.1451 -29.7332 44.0939C-29.8399 43.7042 -29.6533 43.257 -30.3666 42.7076C-30.5797 42.5344 -30.8337 42.4137 -31.1066 42.3562C-31.2768 42.3385 -31.4489 42.3627 -31.6066 42.4264C-31.6399 42.2462 -31.7201 42.077 -31.8399 41.9345C-32.0792 41.7368 -32.3582 41.5882 -32.6598 41.4981C-32.9614 41.408 -33.2791 41.3782 -33.5933 41.4106C-34.1329 41.4291 -34.6642 41.5439 -35.1599 41.7492C-35.1853 41.6906 -35.2277 41.6403 -35.2821 41.604C-35.3364 41.5678 -35.4004 41.5472 -35.4666 41.5448C-35.6066 41.5448 -35.5666 41.5448 -35.5999 41.4298C-35.8066 40.7909 -36.3266 40.8356 -36.7799 40.7909C-36.9087 40.6655 -37.0659 40.5704 -37.2394 40.5127C-37.4128 40.4551 -37.5978 40.4366 -37.7799 40.4587C-38.027 40.5207 -38.2662 40.6085 -38.4933 40.7206C-38.682 40.6191 -38.8807 40.5356 -39.0866 40.4714C-39.9666 40.3628 -40.3799 40.7973 -40.8599 41.4873C-41.3199 41.4873 -41.4866 41.3467 -42.0333 41.647C-42.4267 41.8657 -42.7693 42.1592 -43.0399 42.5095C-43.1836 42.7337 -43.2978 42.974 -43.3799 43.2251C-43.399 43.3714 -43.399 43.5195 -43.3799 43.6659C-43.7744 43.7882 -44.1118 44.0391 -44.3333 44.3751C-44.9199 45.2823 -44.4799 46.4898 -44.0399 46.6878C-43.955 46.726 -43.8654 46.7539 -43.7733 46.7709C-43.9319 47.0078 -44.0002 47.2899 -43.9666 47.5695C-43.9648 47.8215 -43.8596 48.0626 -43.6737 48.2408C-43.4878 48.4189 -43.2362 48.5198 -42.9733 48.5214C-43.2253 49.1339 -43.2489 49.811 -43.0399 50.4381C-43.2161 50.6357 -43.3443 50.8684 -43.4149 51.1193C-43.4856 51.3702 -43.4972 51.633 -43.4486 51.8888C-43.4001 52.1445 -43.2928 52.3866 -43.1345 52.5976C-42.9761 52.8086 -42.7708 52.9832 -42.5333 53.1087C-42.3368 53.1916 -42.1245 53.2344 -41.9099 53.2344C-41.6953 53.2344 -41.483 53.1916 -41.2866 53.1087C-41.0157 54.4431 -40.2059 55.6211 -39.0333 56.3862C-39.1133 56.6737 -39.4133 57.8301 -39.4733 58.0728C-40.9459 58.3116 -42.3875 58.7015 -43.7733 59.2356C-48.1866 60.9542 -51.1933 64.1231 -51.3333 68.8189C-51.3278 68.8378 -51.3161 68.8545 -51.2998 68.8664C-51.2836 68.8783 -51.2637 68.8847 -51.2433 68.8847C-51.2228 68.8847 -51.2029 68.8783 -51.1867 68.8664C-51.1704 68.8545 -51.1587 68.8378 -51.1533 68.8189C-50.9666 65.2092 -49.0466 62.4939 -45.8199 60.6603C-44.9599 61.2673 -43.1533 62.3342 -42.8466 62.6792C-43.1733 63.3948 -44.1799 64.7365 -44.1799 65.0623C-44.1799 65.2603 -44.2933 64.9984 -39.8466 68.6848C-39.8341 68.6963 -39.8182 68.704 -39.8011 68.7068C-39.784 68.7096 -39.7664 68.7074 -39.7506 68.7006C-39.7348 68.6937 -39.7215 68.6824 -39.7125 68.6682C-39.7035 68.654 -39.6991 68.6375 -39.6999 68.6209H-38.4533C-38.3999 68.7742 -38.2466 68.6912 -38.2799 68.6209L-40.6133 60.9542C-38.5333 62.6217 -34.1866 62.8006 -32.1866 61.3631L-34.3733 68.5378C-34.3733 68.6337 -34.2466 68.7167 -34.1933 68.5378H-32.7799C-32.7808 68.5545 -32.7764 68.5709 -32.7673 68.5851C-32.7583 68.5993 -32.745 68.6106 -32.7292 68.6175C-32.7134 68.6244 -32.6958 68.6266 -32.6787 68.6238C-32.6616 68.6209 -32.6458 68.6133 -32.6333 68.6017C-28.4333 65.1262 -28.5266 65.369 -28.5199 65.1709C-28.5199 64.8515 -29.4866 63.5098 -29.8533 62.7878C-29.0784 62.2036 -28.2729 61.6577 -27.4399 61.1523C-24.9133 63.0689 -23.6399 65.5159 -22.8933 68.3909C-22.8871 68.4129 -22.872 68.4317 -22.8514 68.4431C-22.8307 68.4545 -22.8062 68.4575 -22.7833 68.4516C-22.7603 68.4457 -22.7407 68.4312 -22.7288 68.4115C-22.7169 68.3917 -22.7137 68.3682 -22.7199 68.3462C-23.8666 63.0498 -26.9866 59.472 -32.8066 58.207ZM-42.5866 52.6039C-42.8279 52.3542 -42.983 52.0392 -43.0307 51.702C-43.0784 51.3647 -43.0165 51.0215 -42.8533 50.7192C-42.5034 51.0789 -42.0301 51.3057 -41.5199 51.3581C-41.4863 51.8632 -41.4128 52.3651 -41.2999 52.8595C-41.5204 52.9147 -41.7513 52.9204 -41.9745 52.8761C-42.1977 52.8317 -42.4071 52.7386 -42.5866 52.6039ZM-32.9333 61.2928C-34.5333 62.1681 -38.2666 62.0914 -40.0133 60.9095C-40.2672 60.7391 -40.5078 60.5512 -40.7333 60.3473L-41.2333 58.7117C-40.6266 58.552 -40.0066 58.4178 -39.3999 58.3156C-39.2933 58.3156 -39.3399 58.3156 -39.0933 57.2678C-38.8466 56.2201 -38.8066 56.2648 -38.8866 56.2137C-40.5133 55.2426 -41.1333 53.3898 -41.2533 51.5562C-41.2533 51.2431 -41.2533 51.192 -41.3733 51.1473C-41.4933 51.1026 -42.2733 51.0323 -42.6466 50.5084C-42.5042 50.402 -42.3373 50.3297 -42.1599 50.2976C-42.1402 50.2924 -42.1228 50.2811 -42.1104 50.2655C-42.098 50.25 -42.0913 50.2309 -42.0913 50.2113C-42.0913 50.1917 -42.098 50.1727 -42.1104 50.1571C-42.1228 50.1415 -42.1402 50.1302 -42.1599 50.1251C-42.3671 50.1268 -42.5715 50.1703 -42.7599 50.2528C-42.8496 49.9959 -42.8769 49.7228 -42.8399 49.4542C-42.7999 49.0326 -42.6333 48.1764 -42.1733 48.1764C-42.0767 48.2863 -41.967 48.3849 -41.8466 48.4703C-41.8318 48.4919 -41.8121 48.5099 -41.789 48.5232C-41.7659 48.5364 -41.74 48.5446 -41.7133 48.547C-40.8999 48.9495 -40.5199 47.7931 -40.1733 47.1223C-40.1066 46.9881 -40.0999 46.5856 -40.0466 46.3748C-39.7999 46.3748 -39.7133 46.4706 -38.9933 46.0681C-38.4266 45.7551 -38.3733 45.2056 -38.1466 44.7328H-37.6533C-37.3937 44.7172 -37.1388 44.6588 -36.8999 44.5603C-36.8977 44.7534 -36.8498 44.9434 -36.7599 45.1162C-36.4435 45.711 -35.987 46.2272 -35.4266 46.6239C-35.2123 46.7219 -34.9892 46.8011 -34.7599 46.8603C-35.1733 47.1862 -34.9999 48.5598 -33.8533 48.9751C-33.6776 49.0345 -33.4969 49.0794 -33.3133 49.1092C-33.3799 49.4542 -34.0799 50.3231 -32.3533 50.9556C-32.2323 50.9803 -32.1098 50.9973 -31.9866 51.0067C-32.0199 51.0962 -32.0732 51.2367 -32.0799 51.2751C-32.1432 51.5205 -32.1432 51.7771 -32.0799 52.0226C-31.9799 52.3548 -31.6866 52.4826 -31.4999 52.6615C-31.5933 52.9809 -31.6999 53.1342 -31.4999 53.3898C-32.6933 55.8367 -33.9999 55.9453 -33.8533 56.3223C-33.6266 56.9612 -33.3266 57.8045 -33.1399 58.4434C-33.0799 58.6606 -32.9199 58.5201 -31.4199 58.9865L-31.9066 60.5773C-32.2137 60.8589 -32.5591 61.0996 -32.9333 61.2928Z" fill="black"/>
</g>
</g>
<rect x="41.5" y="26.5" width="28" height="28" rx="14" stroke="black"/>
<line y1="-0.25" x2="1.58806" y2="-0.25" transform="matrix(0.88064 0.473785 -0.474183 0.880426 38.4775 33.8337)" stroke="#DFDFDF" stroke-width="0.5"/>
<line y1="-0.25" x2="1.58806" y2="-0.25" transform="matrix(0.820189 0.572093 -0.572509 0.819898 39.8203 31.0144)" stroke="#DFDFDF" stroke-width="0.5"/>
<line y1="-0.25" x2="1.58806" y2="-0.25" transform="matrix(0.716732 0.697349 -0.697736 0.716355 41.5657 28.7341)" stroke="#DFDFDF" stroke-width="0.5"/>
<line y1="-0.25" x2="1.58806" y2="-0.25" transform="matrix(0.635861 0.771804 -0.772141 0.635451 43.5791 26.7209)" stroke="#DFDFDF" stroke-width="0.5"/>
<line y1="-0.25" x2="1.58806" y2="-0.25" transform="matrix(0.415869 0.909425 -0.909595 0.415497 46.1807 24.7874)" stroke="#DFDFDF" stroke-width="0.5"/>
<line y1="-0.25" x2="1.58806" y2="-0.25" transform="matrix(0.295408 0.955371 -0.955461 0.295117 48.8164 23.5002)" stroke="#DFDFDF" stroke-width="0.5"/>
<line y1="-0.25" x2="1.58806" y2="-0.25" transform="matrix(0.0884184 0.996083 -0.996092 0.0883236 52.0449 22.4045)" stroke="#DFDFDF" stroke-width="0.5"/>
<line y1="-0.25" x2="1.58806" y2="-0.25" transform="matrix(0.00940425 0.999956 -0.999956 0.00939409 55.7451 22)" stroke="black" stroke-width="0.5"/>
<line y1="-0.25" x2="1.58806" y2="-0.25" transform="matrix(-0.125201 0.992131 -0.992148 -0.125067 59.2346 22.2429)" stroke="black" stroke-width="0.5"/>
<line y1="-0.25" x2="1.58806" y2="-0.25" transform="matrix(-0.379605 0.925149 -0.925293 -0.379254 62.3877 23.0974)" stroke="black" stroke-width="0.5"/>
<line y1="-0.25" x2="1.58806" y2="-0.25" transform="matrix(-0.548741 0.835992 -0.836264 -0.548326 65.7051 24.5737)" stroke="black" stroke-width="0.5"/>
<line y1="-0.25" x2="1.58806" y2="-0.25" transform="matrix(-0.64019 0.768217 -0.768557 -0.639781 68.5525 26.615)" stroke="black" stroke-width="0.5"/>
<line y1="-0.25" x2="1.58806" y2="-0.25" transform="matrix(-0.674533 0.738245 -0.738608 -0.674135 70.9434 29.2708)" stroke="black" stroke-width="0.5"/>
<line y1="-0.25" x2="1.58806" y2="-0.25" transform="matrix(-0.87984 0.47527 -0.475668 -0.879625 72.7119 31.7622)" stroke="black" stroke-width="0.5"/>
<line y1="-0.25" x2="1.58806" y2="-0.25" transform="matrix(-0.94342 0.3316 -0.331919 -0.943308 73.959 34.6018)" stroke="black" stroke-width="0.5"/>
<line y1="-0.25" x2="1.58806" y2="-0.25" transform="matrix(-0.991763 0.128085 -0.128221 -0.991746 74.7307 37.4204)" stroke="black" stroke-width="0.5"/>
<line y1="-0.25" x2="1.58806" y2="-0.25" transform="matrix(-0.999972 0.00754343 -0.00755159 -0.999971 75 40.9465)" stroke="black" stroke-width="0.5"/>
<line y1="-0.25" x2="1.58806" y2="-0.25" transform="matrix(-0.999889 -0.0148888 0.0149049 -0.999889 74.7307 44.3188)" stroke="black" stroke-width="0.5"/>
<line y1="-0.25" x2="1.58806" y2="-0.25" transform="matrix(-0.852559 -0.522631 0.523042 -0.852307 73.8772 47.9741)" stroke="black" stroke-width="0.5"/>
<line y1="-0.25" x2="1.58806" y2="-0.25" transform="matrix(-0.832229 -0.554432 0.554848 -0.831952 72.2229 51.1292)" stroke="black" stroke-width="0.5"/>
<line y1="-0.25" x2="1.58806" y2="-0.25" transform="matrix(-0.763038 -0.646353 0.64676 -0.762693 70.1934 53.8765)" stroke="black" stroke-width="0.5"/>
<line y1="-0.25" x2="1.58806" y2="-0.25" transform="matrix(0.796726 -0.60434 0.604755 0.796411 41.0281 52.981)" stroke="#DFDFDF" stroke-width="0.5"/>
<line y1="-0.25" x2="1.58806" y2="-0.25" transform="matrix(0.952785 -0.303644 0.303942 0.95269 38.8459 49.437)" stroke="#DFDFDF" stroke-width="0.5"/>
<line y1="-0.25" x2="1.58806" y2="-0.25" transform="matrix(0.99112 -0.132968 0.133109 0.991101 37.3616 45.71)" stroke="#DFDFDF" stroke-width="0.5"/>
<line y1="-0.25" x2="1.58806" y2="-0.25" transform="matrix(0.99112 -0.132968 0.133109 0.991101 37 41.9031)" stroke="#DFDFDF" stroke-width="0.5"/>
<line y1="-0.25" x2="1.58806" y2="-0.25" transform="matrix(0.992216 0.124526 -0.124658 0.9922 37.2686 37.6003)" stroke="#DFDFDF" stroke-width="0.5"/>
<line y1="-0.25" x2="1.58806" y2="-0.25" transform="matrix(-0.532773 -0.846258 0.846518 -0.53236 67.2825 56.3184)" stroke="black" stroke-width="0.5"/>
<line y1="-0.25" x2="1.58806" y2="-0.25" transform="matrix(-0.267439 -0.963575 0.963649 -0.267171 64.0264 58.449)" stroke="black" stroke-width="0.5"/>
<line y1="-0.25" x2="1.58806" y2="-0.25" transform="matrix(-0.262719 -0.964872 0.964944 -0.262454 61.1729 59.4219)" stroke="black" stroke-width="0.5"/>
<line y1="-0.25" x2="1.58806" y2="-0.25" transform="matrix(-0.115333 -0.993327 0.993341 -0.11521 57.9258 59.989)" stroke="black" stroke-width="0.5"/>
<line y1="-0.25" x2="1.58806" y2="-0.25" transform="matrix(0.0555764 -0.998454 0.998458 0.0555165 54.1877 60)" stroke="black" stroke-width="0.5"/>
<line y1="-0.25" x2="1.58806" y2="-0.25" transform="matrix(0.179182 -0.983816 0.98385 0.178994 50.4275 59.1636)" stroke="black" stroke-width="0.5"/>
<line y1="-0.25" x2="1.58806" y2="-0.25" transform="matrix(0.266841 -0.963741 0.963815 0.266573 46.8018 57.644)" stroke="black" stroke-width="0.5"/>
<line y1="-0.25" x2="1.58806" y2="-0.25" transform="matrix(0.519485 -0.854479 0.854729 0.519075 43.5791 55.5308)" stroke="black" stroke-width="0.5"/>
</g>
<defs>
<clipPath id="clip0_466_39432">
<rect width="110" height="141" fill="white"/>
</clipPath>
<clipPath id="clip1_466_39432">
<rect x="41" y="26" width="29" height="29" rx="14.5" fill="white"/>
</clipPath>
<clipPath id="clip2_466_39432">
<rect width="33" height="23" fill="white" transform="translate(39 30)"/>
</clipPath>
</defs>
</svg>
