<svg width="164" height="110" viewBox="0 0 164 110" fill="none" xmlns="http://www.w3.org/2000/svg">
<g clip-path="url(#clip0_466_39488)">
<path d="M93.5027 104.09C92.1857 101.691 89.1617 100.412 84.5407 100.282C78.7576 100.122 74.3466 101.057 71.4166 103.074C70.4876 103.82 69.0366 105.316 69.7596 106.959C70.8546 109.009 74.0806 109.957 79.3396 110.05C83.3177 110.12 88.8627 109.957 92.1387 107.985C93.6667 107.021 94.2317 105.418 93.5027 104.09ZM91.5407 107.146C88.7397 108.909 83.4607 109.131 80.7676 109.075C77.0356 108.997 73.2146 108.921 71.1366 107.086C70.0186 105.83 71.3276 104.318 71.9286 103.736C76.9296 100.029 90.4317 99.8118 92.4487 104.392C92.8857 105.385 92.5537 106.388 91.5407 107.146Z" fill="black"/>
<ellipse cx="81.5" cy="73.0658" rx="76.5" ry="16.4599" fill="black"/>
<path fill-rule="evenodd" clip-rule="evenodd" d="M10.1814 67.437C10.3348 70.649 10.5941 74.0521 11.0545 79.4302L65.8255 81.0839C71.6122 80.2079 79.2065 78.4021 85.5297 76.7206C85.4097 78.144 85.2787 79.5617 85.1357 80.9715C96.5067 82.8937 109.011 84.4208 120.507 85.3241C129.674 79.6886 139.417 74.6743 149.65 70.3667C150.971 70.0407 151.784 68.8981 151.479 67.7564C151.456 67.3367 151.435 66.9169 151.416 66.4971C159.269 69.0855 163.772 72.1676 163.772 75.5061H163.771C163.771 75.7145 163.795 75.9718 163.824 76.2765C163.91 77.196 164.036 78.5479 163.664 80.2978C163.193 82.5107 161.515 84.4658 159.291 85.7898C151.412 90.4796 140.555 92.2557 130.884 93.7234C118.619 95.5846 101.831 96.9568 85.3377 97.0323V100.957C85.3377 102.576 83.6967 103.894 81.6807 103.894C79.6647 103.894 78.0237 102.576 78.0237 100.957V97.025C63.3547 96.9191 48.6167 95.8648 34.1486 93.8543L34.139 93.8527C24.7587 92.4902 13.0908 90.7944 4.87171 85.7826C-0.395293 82.6335 -0.221292 78.35 0.407708 74.2326C0.400508 73.6336 2.61631 70.416 10.1814 67.437ZM158.688 85.1346C160.719 83.9254 162.24 82.1518 162.664 80.1598C162.826 79.3986 162.881 78.6134 162.885 77.8193C157.403 86.0684 123.882 92.2292 82.0887 92.2292C40.0697 92.2292 6.40271 86.0162 1.12471 77.7157C1.14371 80.8245 2.20971 83.1739 5.48271 85.1314C13.5143 90.0292 25.0536 91.7049 34.3254 93.0514H34.3267C67.8957 97.7155 104.545 96.899 130.697 92.9221C140.256 91.468 150.989 89.7177 158.688 85.1346Z" fill="black"/>
<path d="M35 44.7628L71.25 21.4781L125.25 18.0657L150.5 43.7591L149 67.2445L98.5 80.292L35 76.2774V44.7628Z" fill="#F7F8F9"/>
<path d="M71.25 21.4781L35 44.7628M71.25 21.4781L125.25 18.0657L150.5 43.7591M71.25 21.4781L98.5 43.7591M28.75 48.7774L35 44.7628M35 44.7628V76.2774L98.5 80.292M98.5 80.292L149 67.2445L150.5 43.7591M98.5 80.292V43.7591M150.5 43.7591H98.5" stroke="black" stroke-width="1.5"/>
<path d="M71 21.5319L125.75 17.6643L154 43.7592L104.5 49.0319L71 21.5319Z" fill="black"/>
<path d="M74.0456 37.6988C74.0456 39.3345 72.722 40.6591 71.091 40.6591C69.46 40.6591 68.1365 39.3345 68.1365 37.6988C68.1365 36.0631 69.46 34.7385 71.091 34.7385C72.722 34.7385 74.0456 36.0631 74.0456 37.6988Z" stroke="black"/>
<line x1="71.4092" y1="34.2385" x2="71.4092" y2="40.7948" stroke="black"/>
<line x1="68" y1="37.3809" x2="74.5455" y2="37.3809" stroke="black"/>
<path d="M62.5 79.0876V55H76.75V80.292" stroke="black" stroke-width="1.5"/>
<path d="M43.75 54.3977H47.75V57.6094M43.75 54.3977H39.75V57.6094M43.75 54.3977V60.2189V60.8211M43.75 60.8211H39.75V57.6094M43.75 60.8211H47.75V57.6094M47.75 57.6094H39.75" stroke="black"/>
<path d="M88.5 54.197H92.5V57.4087M88.5 54.197H84.5V57.4087M88.5 54.197V60.0182V60.6204M88.5 60.6204H84.5V57.4087M88.5 60.6204H92.5V57.4087M92.5 57.4087H84.5" stroke="black"/>
<path d="M121.5 55.5606V59.0147L125.964 58.2589M121.5 55.5606V52.1066L125.75 51.7468M121.5 55.5606L130 54.4812M130 54.4812V51.387L125.75 51.7468M130 54.4812V57.5755L125.964 58.2589M125.75 51.7468L125.964 58.2589" stroke="black"/>
</g>
<defs>
<clipPath id="clip0_466_39488">
<rect width="164" height="110" fill="white"/>
</clipPath>
</defs>
</svg>
