<svg width="121" height="121" viewBox="0 0 121 121" fill="none" xmlns="http://www.w3.org/2000/svg">
<path d="M105.504 82.9383C109.154 81.8819 112.871 81.0755 116.63 80.5237C117.977 80.3646 118.748 80.5842 116.802 81.2709C115.29 81.8063 106.396 84.0841 105.762 84.1452C105.682 84.1664 105.598 84.1707 105.515 84.1579C105.432 84.1458 105.354 84.1168 105.283 84.0726C105.212 84.0291 105.15 83.9716 105.103 83.9032C105.055 83.8349 105.021 83.758 105.003 83.6764C104.986 83.5953 104.985 83.5112 105.001 83.4289C105.017 83.3472 105.049 83.2698 105.096 83.2008C105.143 83.1319 105.203 83.0732 105.273 83.0278C105.343 82.983 105.422 82.9522 105.504 82.9383Z" fill="black"/>
<path d="M115.139 102.584C111.32 101.631 107.572 100.411 103.924 98.9345C103.082 98.5679 103.532 97.7499 104.462 97.9859C106.657 98.5425 112.465 100.829 112.48 100.838C115.657 102.119 115.532 102.219 115.469 102.467C115.424 102.639 115.156 102.508 115.139 102.584Z" fill="black"/>
<path d="M99.069 113.773C97.2353 113.098 91.6729 106.544 91.397 105.908C91.1671 105.375 91.7413 105.046 91.9839 105.226C92.9773 105.968 95.6586 109.127 96.5135 110.144C99.259 113.406 99.6389 113.773 99.069 113.773Z" fill="black"/>
<path d="M82.0622 117.882C81.8136 117.687 81.6405 117.411 81.574 117.102C81.5135 116.855 79.471 109.145 79.8546 107.987C79.9943 107.564 80.2781 107.411 80.5939 107.763C81.3259 108.581 82.441 117.205 82.0622 117.882Z" fill="black"/>
<path d="M25.5755 40.377C24.2118 40.377 24.6039 39.4744 24.9197 39.409C29.8631 38.4229 62.8605 34.5902 65.7941 34.4402C66.2576 34.416 66.4397 34.6217 66.4385 34.9151C66.4373 35.2085 66.4548 35.3519 64.6985 35.6586C62.4908 36.0476 25.5755 40.377 25.5755 40.377Z" fill="black"/>
<path d="M26.0034 47.1858C25.814 46.8058 25.782 46.372 26.2587 46.3006C36.4959 44.77 66.2384 41.1327 67.3861 41.4516C67.8434 41.5792 67.6886 42.2151 67.3129 42.3028C62.7681 43.3591 28.4397 47.2075 27.7942 47.2807C26.4118 47.4374 26.1359 47.4453 26.0034 47.1858Z" fill="black"/>
<path d="M27.9721 54.1639C27.5002 54.1639 27.2092 54.0429 27.2389 53.548C27.2655 53.1009 27.6696 53.1118 28.9389 52.9067C39.8785 51.1401 66.792 48.3861 67.4617 48.2893C69.7244 47.962 68.9288 49.1327 68.5779 49.192C58.711 50.8515 27.9933 54.3351 27.9721 54.1639Z" fill="black"/>
<path d="M41.1314 32.3675C39.8469 32.3675 40.3092 32.6258 39.4089 26.9454C38.8039 23.1249 37.5086 15.1788 37.4167 13.0304C37.3604 11.7236 52.558 10.6322 53.8067 10.5403C56.7833 10.3213 56.9926 10.0907 57.2111 10.8301C57.447 11.6287 60.7866 28.8403 60.501 29.9577C60.4599 30.1193 60.3123 30.1507 59.3769 30.2814C58.6733 30.3788 41.1398 32.4691 41.1314 32.3675ZM56.4657 10.9305C55.8359 10.991 37.8353 12.7146 37.9376 13.3045C40.6637 28.9704 40.3576 32.12 40.9499 31.8962C42.3595 31.3517 56.9763 29.9983 58.7417 29.8325C60.642 29.651 60.2978 30.0092 59.8307 27.816C56.1499 10.5651 57.0386 10.7889 56.4657 10.9305Z" fill="black"/>
<path d="M25.9085 43.7294C25.5061 43.707 25.0615 43.1353 25.3858 42.8951C26.5879 42.0021 53.3821 39.4236 53.3973 39.4206C53.9974 39.3347 55.5238 39.1876 55.4984 39.792C55.476 40.3099 55.3689 40.4467 53.9466 40.639C52.877 40.7818 27.1336 43.7971 25.9085 43.7294Z" fill="black"/>
<path d="M26.5364 49.9252C26.7566 49.3952 45.0258 47.4005 45.0464 47.3981C55.6793 46.0532 56.9213 46.1004 56.5964 47.0181C56.3901 47.6001 56.0247 47.4598 55.7633 47.5439C55.0712 47.7653 28.1754 50.7595 27.6472 50.7595C27.6484 50.8012 26.1389 50.8805 26.5364 49.9252Z" fill="black"/>
<path d="M27.8902 56.6804C27.7825 56.03 30.5582 55.8255 40.9854 54.6331C55.1152 53.0165 58.6242 52.3528 57.8716 53.7183C57.6296 54.1533 57.4069 53.9888 56.9556 54.1418C56.5515 54.2816 29.6852 57.3604 28.5018 57.3132C28.0505 57.2981 27.9616 57.1287 27.8902 56.6804Z" fill="black"/>
<path d="M55.4962 59.7378C56.9004 59.7378 56.4436 60.482 56.0056 60.5497C52.8342 61.0409 36.0569 63.464 33.0961 63.3787C32.7579 63.3684 32.6599 62.6871 32.995 62.5813C34.1221 62.2249 55.4859 59.5388 55.4962 59.7378Z" fill="black"/>
<path d="M57.4575 66.8054C57.4533 67.2894 57.2155 67.2435 54.8118 67.601C41.1388 69.6356 35.6128 69.9726 34.4488 70.0954C33.7167 70.1729 33.6798 69.3465 34.1832 69.2388C35.21 69.0137 36.2483 68.8449 37.2935 68.7324C58.1061 66.0056 57.4636 66.1551 57.4575 66.8054Z" fill="black"/>
<path d="M35.9009 76.4394C35.1809 76.4394 35.1652 76.4764 35.1144 76.2095C35.0908 76.0831 35 75.9633 35.0908 75.8187C35.3794 75.3577 41.7972 74.7158 42.3018 74.6505C44.0702 74.4218 56.4467 72.7145 58.2738 72.8076C58.3751 72.8131 58.4705 72.8566 58.5411 72.9298C58.6117 73.0024 58.6524 73.0992 58.6551 73.2003C58.6577 73.3019 58.6222 73.4005 58.5555 73.4768C58.4887 73.5536 58.3957 73.602 58.295 73.6129C42.9134 75.993 35.9027 76.4812 35.9009 76.4394Z" fill="black"/>
<path d="M33.8353 65.9051C33.0137 65.9051 33.1698 65.1391 33.4687 65.078C35.3285 64.6981 45.9637 63.329 46.8283 63.7924C46.9559 63.8608 46.9148 64.0096 46.916 64.1312C46.9227 64.692 34.404 65.8591 33.8353 65.9051Z" fill="black"/>
<path d="M34.9298 72.585C34.5481 72.585 34.456 72.6001 34.355 72.2601C34.1971 71.7259 34.5753 71.686 35.4005 71.5474C37.6886 71.1632 44.1367 70.4445 47.5428 70.3489C47.6419 70.3332 47.7434 70.3556 47.8266 70.4118C47.9098 70.4681 47.9686 70.5534 47.9911 70.6514C48.0449 70.8008 48.022 70.8855 47.8702 70.9466C46.6499 71.4415 36.2287 72.4755 34.9298 72.585Z" fill="black"/>
<path d="M36.0875 78.9621C35.7687 78.9621 35.5715 78.9246 35.5533 78.5701C35.5213 77.9506 35.442 77.9294 43.8739 77.0449C43.8884 77.0449 47.9758 76.6915 48.5711 76.677C49.1338 76.6631 49.4326 77.1925 49.017 77.3468C47.5741 77.8816 36.0875 78.9367 36.0875 78.9621Z" fill="black"/>
<path d="M28.342 66.6239C26.2946 65.8695 26.9759 63.0429 28.8127 63.1754C29.1781 63.1917 29.5295 63.3206 29.8188 63.5445C30.108 63.7683 30.3208 64.0763 30.428 64.4259C30.542 64.7218 30.5698 65.0443 30.5081 65.3552C30.4464 65.6668 30.2977 65.9536 30.0794 66.1841C29.861 66.414 29.5818 66.5773 29.2743 66.6554C28.9669 66.7334 28.6436 66.7225 28.342 66.6239Z" fill="black"/>
<path d="M29.8834 69.8872C30.1265 69.8878 30.367 69.9374 30.5906 70.0324C30.8142 70.128 31.0164 70.2671 31.1852 70.442C31.3539 70.6168 31.4858 70.8237 31.5731 71.0506C31.6603 71.2775 31.7011 71.5201 31.693 71.7627C31.6831 72.1082 31.5692 72.4427 31.366 72.7222C31.1628 73.0017 30.8799 73.2129 30.5544 73.3291C28.305 74.0708 27.095 70.154 29.8834 69.8872Z" fill="black"/>
<path d="M32.8999 78.6856C32.9159 78.9603 32.861 79.235 32.7404 79.4824C32.6199 79.7299 32.4377 79.9422 32.2114 80.0989C31.9852 80.2562 31.7224 80.3518 31.4483 80.3778C31.1742 80.4038 30.898 80.3591 30.6463 80.2478C29.1199 79.6046 29.1229 77.3692 30.6923 76.9233C30.9574 76.8573 31.2341 76.8537 31.5009 76.9118C31.7678 76.9705 32.0176 77.0891 32.2311 77.2597C32.4445 77.4303 32.6159 77.6475 32.7319 77.8949C32.8479 78.1417 32.9054 78.4128 32.8999 78.6856Z" fill="black"/>
<path fill-rule="evenodd" clip-rule="evenodd" d="M80.6804 3.12225C81.2037 3.16548 81.3991 3.1816 81.8934 5.5854C82.7912 9.95218 84.2674 17.1724 86.0001 25.7216C85.6256 25.7657 85.2481 25.8103 84.8748 25.8545C83.0399 16.6889 81.6544 9.74062 81.2606 7.58373C80.6864 4.4414 80.6392 3.90473 80.4371 3.83827C80.3918 3.82327 80.3379 3.83222 80.269 3.84058C79.4885 3.93573 77.8502 4.05222 75.504 4.21899C72.4354 4.43716 68.1569 4.74137 63.0059 5.19638C42.1443 7.03923 13.3868 11.4382 13.4709 11.9887C13.989 15.3734 14.4414 18.369 14.862 21.154C17.4088 38.0169 18.7895 47.1587 26.5335 88.206C28.0934 96.4746 28.913 101.286 29.3888 104.078C30.0175 107.769 30.0455 107.933 30.3879 107.893C30.9694 107.826 31.8365 107.727 32.95 107.601C43.7064 106.377 77.4599 102.538 98.9514 98.776C99.3416 98.7076 94.8101 75.6063 90.2218 52.586C90.6018 52.547 90.9865 52.5071 91.3743 52.4667C95.8465 74.9444 100.05 96.7571 99.9799 98.9242C99.9557 99.6526 99.7875 99.6829 95.6571 100.417C94.9541 100.542 94.1368 100.688 93.1857 100.86C84.9571 102.355 83.6957 102.481 82.4597 102.734C81.5207 102.926 80.5963 103.19 76.6426 104.183C55.3012 109.537 28.5953 114.637 27.3466 114.38C27.307 114.372 27.2506 114.381 27.1843 114.393C26.9813 114.427 26.6861 114.477 26.4996 114.085C25.6834 112.373 12.6015 64.5245 4.1678 26.7725C3.05778 21.8032 2.97572 21.5992 3.0416 21.4716C3.04613 21.4629 3.05137 21.4544 3.05702 21.4449C3.14075 21.2659 3.28254 21.1205 3.45934 21.0323C3.99379 20.7873 4.54614 20.5834 5.1116 20.4224C12.1785 18.6449 13.3057 18.6602 13.4176 18.3306C13.438 18.2705 13.4246 18.1989 13.4074 18.1029C13.3475 17.7719 13.0631 15.8583 13.0166 15.5256C12.9588 15.1104 12.902 14.7271 12.8496 14.3744C12.5293 12.2161 12.3783 11.1986 13.241 11.0062C16.2073 10.3456 40.8937 6.35256 54.479 4.97495C60.215 4.39234 78.4025 2.94639 80.6755 3.12184L80.6804 3.12225ZM4.14118 21.4037C3.93245 21.4552 2.93481 21.7056 27.0011 113.565C27.1536 114.147 69.1466 105.399 71.6653 104.378C71.5836 104.338 70.1328 104.522 67.5519 104.85C61.4746 105.621 49.1337 107.188 33.6592 108.485C30.4007 108.758 29.7311 108.82 29.4939 108.529C29.4127 108.429 29.3822 108.288 29.3159 108.1C28.6841 106.316 27.9703 101.904 27.6468 99.9055L27.6219 99.7513C27.4528 98.7064 27.0912 96.8678 26.7452 95.1085C26.4806 93.763 26.2252 92.464 26.0718 91.6013C25.9101 90.6908 25.7781 89.8462 25.6287 88.8909C25.2864 86.7014 24.853 83.9281 23.7614 78.4407C18.7001 52.9971 16.0937 35.7669 14.7311 26.759C13.9836 21.8183 13.6105 19.3511 13.4116 19.3588C12.5675 19.5535 10.7329 19.9525 8.90721 20.3496C6.77737 20.8128 4.65979 21.2734 4.14118 21.4037Z" fill="black"/>
<circle cx="47.8058" cy="20.5813" r="5.17746" transform="rotate(-19.9036 47.8058 20.5813)" stroke="black"/>
<path d="M44.403 31.4601C44.403 31.4601 43.632 30.0081 44.8656 28.5561C46.0993 27.1041 52.8843 26.6201 54.2722 27.1041C55.66 27.5881 55.66 30.0081 55.66 30.0081" stroke="black"/>
<path d="M86.0604 97.0802C72.6294 98.7743 63.731 87.8842 64.6016 77.0469C65.3657 67.5399 73.2979 61.7537 82.4346 60.9255C85.4681 60.6508 86.3768 61.1511 86.6176 62.5335C87.0005 64.74 84.6562 64.982 82.9307 65.2179C77.7949 65.9203 69.2577 68.86 68.9135 78.4408C68.7683 81.804 69.8724 85.1019 72.0135 87.6997C74.154 90.297 77.1802 92.0116 80.5089 92.5119C89.4357 94.0498 98.0255 88.4717 98.4744 78.9399C98.6129 76.0002 102.395 75.9543 102.755 78.3954C103.327 82.2765 100.879 89.963 93.8467 94.2779C91.4612 95.716 88.8149 96.6682 86.0604 97.0802Z" fill="black"/>
<path d="M73.0099 77.6911C72.2941 77.0256 72.3159 76.7479 72.7721 76.1786C73.2942 75.5288 75.6725 72.6962 76.5788 71.7155C77.0023 71.2575 77.2787 71.0083 78.0828 71.681C79.611 72.9594 83.4757 76.2911 83.6004 76.3922C84.4359 77.0698 83.221 76.9076 98.4743 55.9031C98.7581 55.5123 99.0551 55.09 99.8053 55.6006C100.233 55.8898 101.234 56.6194 104.108 58.6728C104.885 59.2282 105.147 59.3988 104.546 60.2676C104.091 60.9241 88.6788 83.9123 86.3846 86.7032C85.4166 87.8805 84.8612 87.8823 83.1067 86.5265C80.4647 84.4841 74.2513 78.8515 73.0099 77.6911Z" fill="black"/>
</svg>
