<svg width="466" height="243" viewBox="0 0 466 243" fill="none" xmlns="http://www.w3.org/2000/svg">
<path d="M415.476 209.899H413.144V184.838C413.144 180.013 411.23 175.385 407.823 171.973C404.415 168.561 399.794 166.644 394.975 166.644H285.054V164.308H394.975C400.411 164.314 405.622 166.479 409.465 170.328C413.308 174.177 415.47 179.395 415.476 184.838V209.899Z" fill="black"/>
<rect x="382.927" y="193" width="50" height="50" rx="8" fill="black"/>
<g clip-path="url(#clip0_600_19818)">
<path d="M407.427 206C400.801 206 395.427 211.373 395.427 218C395.427 223.302 398.865 227.8 403.634 229.387C404.233 229.498 404.427 229.126 404.427 228.81V226.576C401.089 227.302 400.394 225.16 400.394 225.16C399.848 223.773 399.061 223.404 399.061 223.404C397.972 222.659 399.144 222.675 399.144 222.675C400.349 222.759 400.983 223.912 400.983 223.912C402.053 225.746 403.79 225.216 404.475 224.909C404.582 224.134 404.893 223.604 405.237 223.305C402.572 223 399.77 221.971 399.77 217.374C399.77 216.063 400.239 214.993 401.006 214.153C400.882 213.85 400.471 212.629 401.123 210.977C401.123 210.977 402.131 210.655 404.424 212.207C405.381 211.941 406.407 211.808 407.427 211.803C408.447 211.808 409.474 211.941 410.433 212.207C412.724 210.655 413.73 210.977 413.73 210.977C414.383 212.63 413.972 213.851 413.848 214.153C414.618 214.993 415.083 216.064 415.083 217.374C415.083 221.983 412.276 222.998 409.604 223.295C410.034 223.667 410.427 224.397 410.427 225.517V228.81C410.427 229.129 410.619 229.504 411.228 229.386C415.993 227.797 419.427 223.3 419.427 218C419.427 211.373 414.054 206 407.427 206Z" fill="white"/>
</g>
<path opacity="0.5" d="M29.0836 209.899H26.7513V184.838C26.7575 179.391 28.9226 174.169 32.7709 170.32C36.6193 166.47 41.8362 164.308 47.2756 164.308H157.174V166.644H47.2756C42.4548 166.644 37.8311 168.56 34.4201 171.971C31.0091 175.383 29.0898 180.01 29.0836 184.838V209.899Z" fill="black"/>
<rect x="3.92737" y="193" width="50" height="50" rx="8" fill="black"/>
<g clip-path="url(#clip1_600_19818)">
<path d="M21.5289 218.978C22.2359 218.978 22.7636 218.848 23.0975 218.591C23.4279 218.336 23.656 217.896 23.7756 217.281C23.8871 216.706 23.8447 216.305 23.6494 216.089C23.4498 215.868 23.0182 215.755 22.3666 215.755H21.2369L20.6106 218.978H21.5289ZM17.8338 222.948C17.7814 222.948 17.7316 222.924 17.6982 222.884C17.6648 222.843 17.6513 222.79 17.6613 222.739L19.3212 214.198C19.3372 214.116 19.4096 214.056 19.4937 214.056H23.0711C24.1954 214.056 25.0322 214.361 25.5582 214.964C26.087 215.569 26.2503 216.415 26.0436 217.479C25.9594 217.912 25.8147 218.314 25.6134 218.674C25.4119 219.035 25.1456 219.369 24.8218 219.666C24.4341 220.029 23.9954 220.292 23.5189 220.447C23.05 220.6 22.4477 220.677 21.729 220.677H20.2804L19.8667 222.806C19.8507 222.888 19.7784 222.948 19.6942 222.948H17.8338Z" fill="white"/>
<path d="M30.3091 220.677C30.2566 220.677 30.2069 220.654 30.1735 220.613C30.1401 220.573 30.1266 220.52 30.1366 220.468L30.8708 216.689C30.9407 216.33 30.9234 216.072 30.8224 215.963C30.7605 215.896 30.5746 215.785 30.0251 215.785H28.6949L27.7717 220.535C27.7557 220.618 27.6833 220.677 27.5992 220.677H25.7535C25.701 220.677 25.6512 220.654 25.6178 220.613C25.5844 220.573 25.5709 220.52 25.5809 220.468L27.2408 211.928C27.2568 211.845 27.3292 211.786 27.4133 211.786H29.259C29.3115 211.786 29.3613 211.809 29.3947 211.85C29.4281 211.89 29.4416 211.943 29.4316 211.995L29.031 214.056H30.462C31.5521 214.056 32.2914 214.248 32.7219 214.644C33.1608 215.047 33.2977 215.692 33.129 216.561L32.3567 220.535C32.3406 220.618 32.2683 220.677 32.1841 220.677H30.3091Z" fill="white"/>
<path d="M36.0494 218.978C36.7563 218.978 37.2841 218.848 37.618 218.591C37.9484 218.336 38.1765 217.896 38.2962 217.281C38.4077 216.706 38.3652 216.305 38.1699 216.089C37.9703 215.868 37.5387 215.755 36.8871 215.755H35.7574L35.131 218.978H36.0494ZM32.3544 222.948C32.3019 222.948 32.2521 222.924 32.2188 222.884C32.1854 222.843 32.1718 222.79 32.1818 222.739L33.8416 214.198C33.8577 214.116 33.9301 214.056 34.0143 214.056H37.5916C38.7159 214.056 39.5527 214.361 40.0788 214.964C40.6076 215.569 40.7708 216.415 40.5641 217.479C40.4798 217.912 40.3352 218.314 40.1339 218.674C39.9324 219.035 39.6661 219.369 39.3422 219.666C38.9546 220.029 38.5158 220.292 38.0394 220.447C37.5704 220.6 36.9682 220.677 36.2494 220.677H34.8008L34.3873 222.806C34.3712 222.888 34.2989 222.948 34.2147 222.948H32.3544Z" fill="white"/>
</g>
<path d="M434.112 135.768H293.427V138.103H434.112V135.768Z" fill="black"/>
<rect x="415.893" y="95" width="50" height="50" rx="8" fill="black"/>
<path d="M440.752 108C439.773 108.005 438.838 108.088 438.016 108.234C435.593 108.662 435.153 109.558 435.153 111.21V113.392H440.879V114.12H433.004C431.34 114.12 429.883 115.12 429.427 117.022C428.902 119.203 428.878 120.564 429.427 122.842C429.834 124.537 430.806 125.744 432.47 125.744H434.439V123.129C434.439 121.239 436.074 119.572 438.016 119.572H443.735C445.327 119.572 446.598 118.261 446.598 116.662V111.21C446.598 109.658 445.289 108.493 443.735 108.234C442.751 108.07 441.731 107.996 440.752 108ZM437.655 109.755C438.247 109.755 438.73 110.246 438.73 110.85C438.73 111.451 438.247 111.937 437.655 111.937C437.062 111.937 436.581 111.451 436.581 110.85C436.581 110.246 437.062 109.755 437.655 109.755Z" fill="white"/>
<path d="M447.312 114.12V116.662C447.312 118.633 445.64 120.292 443.735 120.292H438.016C436.449 120.292 435.153 121.633 435.153 123.202V128.654C435.153 130.206 436.502 131.118 438.016 131.564C439.828 132.096 441.566 132.193 443.735 131.564C445.176 131.146 446.598 130.306 446.598 128.654V126.472H440.879V125.745H449.46C451.125 125.745 451.744 124.584 452.323 122.842C452.921 121.048 452.896 119.323 452.323 117.022C451.912 115.366 451.126 114.12 449.46 114.12H447.312ZM444.095 127.927C444.689 127.927 445.169 128.413 445.169 129.014C445.169 129.618 444.689 130.109 444.095 130.109C443.504 130.109 443.021 129.618 443.021 129.014C443.021 128.413 443.504 127.927 444.095 127.927Z" fill="white"/>
<path d="M334.919 104.564H289.159V102.228H334.919C339.737 102.228 344.359 100.311 347.766 96.8992C351.173 93.487 353.088 88.8592 353.088 84.0337V58.9726H355.42V84.0337C355.414 89.4768 353.252 94.6951 349.408 98.5439C345.565 102.393 340.354 104.558 334.919 104.564Z" fill="black"/>
<rect x="329.893" y="14" width="50" height="50" rx="8" fill="black"/>
<g clip-path="url(#clip2_600_19818)">
<path fill-rule="evenodd" clip-rule="evenodd" d="M366.537 32.4294C366.545 32.4613 366.55 32.4942 366.55 32.5275V37.6791C366.55 37.8134 366.478 37.9383 366.361 38.0049L362.037 40.4943V45.4285C362.037 45.5628 361.966 45.6867 361.85 45.7543L352.824 50.95C352.803 50.9618 352.781 50.9693 352.758 50.9773C352.75 50.9801 352.742 50.9853 352.733 50.9876C352.67 51.004 352.603 51.004 352.54 50.9876C352.53 50.9848 352.521 50.9791 352.511 50.9754C352.49 50.9679 352.469 50.9613 352.449 50.95L343.425 45.7543C343.309 45.6872 343.237 45.5628 343.237 45.4285V29.9738C343.237 29.94 343.241 29.9071 343.25 29.8752C343.252 29.8644 343.259 29.8546 343.263 29.8438C343.27 29.824 343.276 29.8039 343.287 29.7855C343.294 29.7733 343.304 29.7635 343.313 29.7522C343.323 29.7372 343.333 29.7217 343.346 29.7085C343.357 29.6977 343.371 29.6898 343.383 29.6804C343.397 29.6691 343.409 29.6569 343.424 29.648L347.937 27.0501C348.053 26.9835 348.197 26.9835 348.312 27.0501L352.825 29.648H352.825C352.841 29.6574 352.853 29.6691 352.867 29.6799C352.879 29.6893 352.893 29.6977 352.903 29.7081C352.917 29.7217 352.926 29.7372 352.937 29.7522C352.945 29.7635 352.956 29.7733 352.963 29.7855C352.973 29.8043 352.979 29.824 352.987 29.8438C352.991 29.8546 352.997 29.8644 353 29.8757C353.009 29.9076 353.013 29.9405 353.013 29.9738V39.6267L356.773 37.4617V32.5271C356.773 32.4942 356.778 32.4609 356.786 32.4294C356.79 32.4181 356.796 32.4083 356.799 32.3975C356.807 32.3778 356.814 32.3576 356.824 32.3393C356.831 32.327 356.841 32.3172 356.849 32.3059C356.861 32.2909 356.87 32.2754 356.883 32.2623C356.894 32.2515 356.907 32.2435 356.92 32.2341C356.934 32.2228 356.946 32.2106 356.961 32.2017L361.474 29.6038C361.59 29.5367 361.734 29.5367 361.85 29.6038L366.362 32.2017C366.378 32.2111 366.39 32.2228 366.404 32.2336C366.416 32.243 366.429 32.2515 366.44 32.2618C366.453 32.2754 366.463 32.2909 366.474 32.3059C366.482 32.3172 366.493 32.327 366.499 32.3393C366.51 32.3576 366.516 32.3778 366.524 32.3975C366.528 32.4083 366.534 32.4181 366.537 32.4294ZM365.798 37.4617V33.1778L364.219 34.0868L362.037 35.3428V39.6267L365.798 37.4617H365.798ZM361.286 45.2111V40.9244L359.14 42.1498L353.013 45.6468V49.9739L361.286 45.2111ZM343.989 30.6241V45.2111L352.261 49.9734V45.6473L347.939 43.2016L347.938 43.2006L347.936 43.1997C347.921 43.1912 347.909 43.179 347.896 43.1687C347.884 43.1593 347.87 43.1518 347.86 43.1415L347.859 43.1401C347.847 43.1283 347.838 43.1138 347.828 43.1006C347.819 43.0879 347.807 43.0771 347.8 43.064L347.799 43.0626C347.791 43.0485 347.786 43.0316 347.78 43.0156C347.773 43.0016 347.765 42.9884 347.762 42.9734C347.757 42.9555 347.756 42.9363 347.754 42.918C347.752 42.9039 347.749 42.8898 347.749 42.8757V32.7891L345.568 31.5326L343.989 30.6241ZM348.125 27.8098L344.366 29.9738L348.124 32.1378L351.883 29.9733L348.124 27.8098H348.125ZM350.08 41.315L352.261 40.0596V30.6241L350.682 31.5331L348.501 32.7891V42.2245L350.08 41.315ZM361.662 30.3635L357.903 32.5275L361.662 34.6915L365.42 32.5271L361.662 30.3635ZM361.286 35.3428L359.104 34.0868L357.525 33.1778V37.4617L359.706 38.7172L361.286 39.6267V35.3428ZM352.636 44.9965L358.15 41.8489L360.906 40.276L357.15 38.1134L352.825 40.6033L348.883 42.8724L352.636 44.9965Z" fill="white"/>
</g>
<path d="M229.149 44.7252H226.817V92.722H229.149V44.7252Z" fill="black"/>
<rect x="202.893" width="50" height="50" rx="8" fill="black"/>
<path d="M224.273 13.7657H231.512L223.997 36.0316C223.839 36.4996 223.397 36.8166 222.903 36.8166H217.27C216.637 36.8166 216.117 36.2965 216.117 35.6643C216.117 35.5391 216.138 35.4147 216.178 35.296L223.179 14.5509C223.337 14.0826 223.779 13.7655 224.273 13.7653V13.7657Z" fill="white"/>
<path d="M234.792 28.7001H223.312C223.021 28.7001 222.781 28.94 222.781 29.2314C222.781 29.3788 222.842 29.5197 222.95 29.6201L230.327 36.505C230.541 36.7052 230.824 36.8168 231.118 36.8166H237.618L234.792 28.7001Z" fill="white"/>
<path d="M224.273 13.7656C223.773 13.7637 223.327 14.0893 223.177 14.566L216.186 35.2769C216.141 35.4017 216.119 35.5332 216.119 35.6657C216.119 36.297 216.638 36.8166 217.27 36.8166H223.052C223.49 36.7385 223.853 36.4298 224 36.0104L225.394 31.9021L230.374 36.5465C230.582 36.7189 230.844 36.8145 231.115 36.8166H237.59L234.75 28.7001L226.471 28.7021L231.538 13.7656H224.273Z" fill="black" fill-opacity="0.3"/>
<path d="M233.519 14.5496C233.361 14.0822 232.92 13.7656 232.427 13.7656H224.359C224.852 13.7656 225.293 14.0823 225.451 14.5496L232.453 35.2956C232.493 35.4145 232.513 35.5388 232.513 35.6643C232.513 36.2967 231.993 36.8169 231.361 36.8169H239.429C240.061 36.8168 240.581 36.2965 240.581 35.6643C240.581 35.5388 240.561 35.4145 240.521 35.2956L233.519 14.5496Z" fill="white"/>
<path d="M146.002 104.564H100.172C94.7329 104.564 89.516 102.401 85.6676 98.552C81.8193 94.7026 79.6542 89.4807 79.648 84.0337V58.9725H81.9803V84.0337C81.9865 88.8613 83.9058 93.4891 87.3168 96.9005C90.7278 100.312 95.3515 102.228 100.172 102.228H146.002V104.564Z" fill="black"/>
<rect x="59.9274" y="18" width="50" height="50" rx="8" fill="black"/>
<g clip-path="url(#clip3_600_19818)">
<path d="M91.3297 40.0762C90.1798 40.1675 89.2154 40.5812 88.4974 41.2931C87.7582 42.0263 87.4053 42.9207 87.4053 44.0554C87.4053 45.753 88.1019 46.9394 89.6565 47.8795C90.052 48.1168 90.5905 48.3753 91.5214 48.7769C92.79 49.3215 93.2615 49.5801 93.5627 49.9025C93.9338 50.3011 94.0373 50.9369 93.803 51.4236C93.7574 51.5179 93.6387 51.6761 93.5323 51.7826C93.1733 52.1446 92.6074 52.3363 91.9047 52.3363C90.7182 52.3363 89.8329 51.8495 89.1211 50.7969C89.0237 50.657 88.9355 50.5414 88.9233 50.5414C88.896 50.5414 86.5808 51.8769 86.5322 51.9226C86.5017 51.9499 86.5261 52.0138 86.6447 52.2085C87.5696 53.7661 89.0146 54.6788 90.9677 54.9404C91.4788 55.0104 92.4371 55.0073 92.9269 54.9404C94.1559 54.767 95.0777 54.3594 95.7926 53.6657C96.5532 52.9326 96.9274 51.9834 96.9274 50.7939C96.9274 50.0333 96.8026 49.4401 96.5197 48.853C96.325 48.4514 96.1303 48.1806 95.7957 47.8399C95.1538 47.1889 94.3232 46.696 92.6652 45.9842C91.4119 45.4457 90.992 45.2145 90.7152 44.9194C90.4505 44.6365 90.338 44.3049 90.3623 43.8911C90.3836 43.5626 90.4749 43.3405 90.6756 43.1245C90.9646 42.8112 91.2993 42.6803 91.8165 42.6834C92.4036 42.6834 92.7839 42.8355 93.1702 43.2249C93.3071 43.3588 93.4836 43.5748 93.5657 43.7056C93.66 43.8546 93.73 43.9368 93.7543 43.9276C93.8334 43.8942 96.0451 42.4643 96.0451 42.4431C96.0451 42.4309 95.9326 42.2544 95.7957 42.0476C95.5036 41.6095 94.9773 41.0619 94.6153 40.8216C93.946 40.3774 93.2311 40.1492 92.288 40.0793C91.8256 40.0428 91.7647 40.0428 91.3297 40.0762Z" fill="white"/>
<path d="M81.8593 45.6039L81.8502 50.9825L81.7833 51.235C81.6951 51.5666 81.5916 51.7643 81.4091 51.9469C81.1536 52.2024 80.825 52.3089 80.2774 52.3119C79.4956 52.315 79.0271 51.9834 78.4825 51.0525C78.3943 50.9064 78.3152 50.7878 78.3061 50.7908C78.2939 50.7969 77.7432 51.1285 77.0831 51.5271L75.8814 52.2572L75.9727 52.4397C76.5172 53.5258 77.4603 54.3472 78.5951 54.7244C79.7937 55.1229 81.333 55.0864 82.4617 54.6331C83.8155 54.0855 84.6095 52.9538 84.8194 51.2715C84.8377 51.1011 84.8498 49.1998 84.8498 45.6221V40.2283H81.8715L81.8593 45.6039Z" fill="white"/>
</g>
<path d="M176.952 135.767H36.2674V138.103H176.952V135.767Z" fill="black"/>
<rect x="0.427368" y="96.308" width="50" height="50" rx="8" fill="black"/>
<g clip-path="url(#clip4_600_19818)">
<path d="M24.0659 105.076C23.9972 105.082 23.7784 105.104 23.5815 105.119C19.0409 105.529 14.7878 107.979 12.094 111.744C10.594 113.838 9.63467 116.213 9.27217 118.729C9.14404 119.607 9.12842 119.866 9.12842 121.057C9.12842 122.248 9.14404 122.507 9.27217 123.385C10.1409 129.388 14.4128 134.432 20.2065 136.301C21.244 136.635 22.3378 136.863 23.5815 137.001C24.0659 137.054 26.1597 137.054 26.644 137.001C28.7909 136.763 30.6097 136.232 32.4034 135.316C32.6784 135.176 32.7315 135.138 32.694 135.107C32.669 135.088 31.4972 133.516 30.0909 131.616L27.5347 128.163L24.3315 123.423C22.569 120.816 21.119 118.685 21.1065 118.685C21.094 118.682 21.0815 120.788 21.0753 123.36C21.0659 127.863 21.0628 128.044 21.0065 128.151C20.9253 128.304 20.8628 128.366 20.7315 128.435C20.6315 128.485 20.544 128.494 20.0722 128.494H19.5315L19.3878 128.404C19.294 128.344 19.2253 128.266 19.1784 128.176L19.1128 128.035L19.119 121.769L19.1284 115.501L19.2253 115.379C19.2753 115.313 19.3815 115.229 19.4565 115.188C19.5847 115.126 19.6347 115.119 20.1753 115.119C20.8128 115.119 20.919 115.144 21.0847 115.326C21.1315 115.376 22.8659 117.988 24.9409 121.135C27.0159 124.282 29.8534 128.579 31.2472 130.688L33.7784 134.523L33.9065 134.438C35.0409 133.701 36.2409 132.651 37.1909 131.557C39.2128 129.235 40.5159 126.404 40.9534 123.385C41.0815 122.507 41.0972 122.248 41.0972 121.057C41.0972 119.866 41.0815 119.607 40.9534 118.729C40.0847 112.726 35.8128 107.682 30.019 105.813C28.9972 105.482 27.9097 105.254 26.6909 105.116C26.3909 105.085 24.3253 105.051 24.0659 105.076ZM30.6097 114.744C30.7597 114.819 30.8815 114.963 30.9253 115.113C30.9503 115.194 30.9565 116.932 30.9503 120.848L30.9409 126.466L29.9503 124.948L28.9565 123.429V119.344C28.9565 116.704 28.969 115.219 28.9878 115.148C29.0378 114.973 29.1472 114.835 29.2972 114.754C29.4253 114.688 29.4722 114.682 29.9628 114.682C30.4253 114.682 30.5065 114.688 30.6097 114.744Z" fill="white"/>
<path d="M33.6222 134.591C33.5128 134.66 33.4784 134.707 33.5753 134.654C33.644 134.613 33.7565 134.529 33.7378 134.526C33.7284 134.526 33.6753 134.557 33.6222 134.591ZM33.4065 134.732C33.3503 134.776 33.3503 134.779 33.419 134.745C33.4565 134.726 33.4878 134.704 33.4878 134.698C33.4878 134.673 33.4722 134.679 33.4065 134.732ZM33.2503 134.826C33.194 134.87 33.194 134.873 33.2628 134.838C33.3003 134.82 33.3315 134.798 33.3315 134.791C33.3315 134.766 33.3159 134.773 33.2503 134.826ZM33.094 134.92C33.0378 134.963 33.0378 134.966 33.1065 134.932C33.144 134.913 33.1753 134.891 33.1753 134.885C33.1753 134.86 33.1597 134.866 33.094 134.92ZM32.8565 135.045C32.7378 135.107 32.744 135.132 32.8628 135.073C32.9159 135.045 32.9565 135.016 32.9565 135.01C32.9565 134.988 32.9534 134.991 32.8565 135.045Z" fill="white"/>
</g>
<rect x="127.893" y="94.1844" width="200" height="89" rx="12" fill="black"/>
<path d="M161.811 146.184V131.984H164.151V146.184H161.811ZM180.011 146.184H177.971L169.971 135.964V146.184H167.631V131.984H169.671L177.651 142.184V131.984H180.011V146.184ZM186.251 146.184V134.224H182.131V131.984H192.731V134.224H188.591V146.184H186.251ZM194.838 146.184V131.984H203.378V134.224H197.178V137.864H202.178V140.104H197.178V143.944H203.378V146.184H194.838ZM212.218 146.424C210.098 146.424 208.331 145.724 206.918 144.324C205.504 142.911 204.798 141.164 204.798 139.084C204.798 137.004 205.498 135.264 206.898 133.864C208.311 132.451 210.078 131.744 212.198 131.744C213.758 131.744 215.151 132.164 216.378 133.004C217.604 133.844 218.451 134.904 218.918 136.184H216.258C215.884 135.531 215.331 135.004 214.598 134.604C213.878 134.204 213.078 134.004 212.198 134.004C210.731 134.004 209.524 134.491 208.578 135.464C207.631 136.438 207.158 137.644 207.158 139.084C207.158 140.524 207.631 141.731 208.578 142.704C209.524 143.678 210.738 144.164 212.218 144.164C213.511 144.164 214.571 143.791 215.398 143.044C216.224 142.298 216.718 141.311 216.878 140.084H212.018V137.884H219.278C219.531 140.524 218.964 142.611 217.578 144.144C216.204 145.664 214.418 146.424 212.218 146.424ZM221.909 146.184V131.984H227.029C228.335 131.984 229.375 132.364 230.149 133.124C230.935 133.871 231.329 134.838 231.329 136.024C231.329 137.024 231.049 137.851 230.489 138.504C229.942 139.144 229.149 139.578 228.109 139.804L233.389 146.184H230.509L225.309 139.944H224.249V146.184H221.909ZM224.249 137.904H226.749C227.442 137.904 227.989 137.744 228.389 137.424C228.789 137.091 228.989 136.624 228.989 136.024C228.989 135.424 228.789 134.964 228.389 134.644C227.989 134.311 227.442 134.144 226.749 134.144H224.249V137.904ZM233.139 146.184L239.339 131.984H241.379L247.579 146.184H245.139L243.519 142.464H237.159L235.559 146.184H233.139ZM240.339 135.144L238.059 140.384H242.619L240.339 135.144ZM250.84 146.184V134.224H246.72V131.984H257.32V134.224H253.18V146.184H250.84ZM259.428 146.184V131.984H261.768V146.184H259.428ZM271.688 144.164C273.075 144.164 274.248 143.671 275.208 142.684C276.168 141.698 276.648 140.498 276.648 139.084C276.648 137.671 276.168 136.471 275.208 135.484C274.248 134.498 273.075 134.004 271.688 134.004C270.288 134.004 269.108 134.498 268.148 135.484C267.188 136.471 266.708 137.671 266.708 139.084C266.708 140.498 267.188 141.698 268.148 142.684C269.108 143.671 270.288 144.164 271.688 144.164ZM276.888 144.284C275.462 145.711 273.728 146.424 271.688 146.424C269.648 146.424 267.915 145.718 266.488 144.304C265.062 142.878 264.348 141.138 264.348 139.084C264.348 137.031 265.062 135.298 266.488 133.884C267.915 132.458 269.648 131.744 271.688 131.744C273.728 131.744 275.462 132.458 276.888 133.884C278.315 135.311 279.028 137.044 279.028 139.084C279.028 141.124 278.315 142.858 276.888 144.284ZM293.976 146.184H291.936L283.936 135.964V146.184H281.596V131.984H283.636L291.616 142.184V131.984H293.976V146.184Z" fill="white"/>
<defs>
<clipPath id="clip0_600_19818">
<rect width="24" height="24" fill="white" transform="translate(395.427 206)"/>
</clipPath>
<clipPath id="clip1_600_19818">
<rect width="24" height="24" fill="white" transform="translate(16.9274 206)"/>
</clipPath>
<clipPath id="clip2_600_19818">
<rect width="24" height="24" fill="white" transform="translate(342.893 27)"/>
</clipPath>
<clipPath id="clip3_600_19818">
<rect width="24" height="24" fill="white" transform="translate(72.9274 31)"/>
</clipPath>
<clipPath id="clip4_600_19818">
<rect width="32" height="32" fill="white" transform="translate(9.11279 105.057)"/>
</clipPath>
</defs>
</svg>
