<svg width="108" height="111" viewBox="0 0 108 111" fill="none" xmlns="http://www.w3.org/2000/svg">
<path d="M13.2856 62.144C13.2856 52.0845 21.4405 43.9297 31.4999 43.9297H102.214C105.37 43.9297 107.928 46.4881 107.928 49.644V91.7868C107.928 101.846 99.7737 110.001 89.7142 110.001H31.4999C21.4405 110.001 13.2856 101.846 13.2856 91.7868V62.144Z" fill="#0F595C"/>
<path fill-rule="evenodd" clip-rule="evenodd" d="M58.6023 12.7201C55.4661 9.56987 50.3912 9.56987 47.255 12.7201L8.51085 51.6371C7.46411 52.6885 6.08934 53.2145 4.71436 53.2146V80.0002C4.71436 91.8349 14.3083 101.429 26.1429 101.429L47.5715 101.429L44.0001 74.6431C44.0001 65.7671 44.0526 58.5717 52.9286 58.5717C61.8046 58.5717 61.8572 65.7671 61.8572 74.6431V88.036V101.429L79.7143 101.429C91.549 101.429 101.143 91.8349 101.143 80.0002V53.2146C99.7679 53.2145 98.3932 52.6885 97.3464 51.6371L58.6023 12.7201Z" fill="url(#paint0_linear_243_64043)" stroke="#0D4547" stroke-width="2.14286"/>
<path fill-rule="evenodd" clip-rule="evenodd" d="M47.969 13.0769C51.1053 9.92673 56.1802 9.92673 59.3164 13.077L98.0605 51.9939C100.148 54.0907 103.54 54.0982 105.637 52.0108C107.733 49.9233 107.741 46.5314 105.653 44.4347L66.9094 5.51769C59.5852 -1.83922 47.7003 -1.83924 40.3761 5.51768L1.63194 44.4347C-0.455495 46.5314 -0.447945 49.9233 1.6488 52.0108C3.74555 54.0982 7.13749 54.0907 9.22493 51.9939L47.969 13.0769ZM53.6427 58.9286C44.7667 58.9286 51.857 66.124 51.857 75V101.786H62.5713V75C62.5713 66.124 62.5187 58.9286 53.6427 58.9286Z" fill="#0F595C"/>
<path d="M23.2026 98.4099L17.5439 97.1713L22.4396 94.0922C23.3345 93.5287 23.6023 92.3458 23.0317 91.464C22.4598 90.5822 21.2581 90.3196 20.3632 90.8819L15.4675 93.961L16.7258 88.3849C16.9545 87.3718 16.2871 86.3388 15.2589 86.1147C14.2295 85.8893 13.1825 86.5457 12.9537 87.5601L11.6942 93.1348L8.57079 88.3106C7.99887 87.4275 6.79984 87.1649 5.90495 87.7285C5.01006 88.2921 4.74226 89.4749 5.31419 90.3567L8.43756 95.1809L2.77888 93.9424C1.75076 93.717 0.702459 94.3734 0.473689 95.3878C0.24492 96.4009 0.912389 97.4339 1.94051 97.6593L7.59919 98.8979L2.70352 101.977C1.80728 102.539 1.54218 103.722 2.1141 104.605C2.68468 105.487 3.8837 105.75 4.77994 105.186L9.67561 102.108L8.42007 107.683C8.1913 108.697 8.85742 109.729 9.88689 109.955C10.915 110.18 11.962 109.524 12.1907 108.509L13.449 102.934L16.5723 107.759C17.1429 108.64 18.3433 108.903 19.2382 108.341C20.1344 107.777 20.4009 106.594 19.8289 105.712L16.7056 100.888L22.3643 102.127C23.3937 102.352 24.4407 101.695 24.6694 100.681C24.8982 99.667 24.2307 98.6353 23.2026 98.4099Z" fill="#FFA45C"/>
<path fill-rule="evenodd" clip-rule="evenodd" d="M30.4287 76.0005C30.4287 63.6145 40.471 53.5723 52.857 53.5723C65.2429 53.5723 75.2852 63.6145 75.2852 76.0005C75.2852 85.8634 68.638 97.8933 60.4797 106.052C57.794 108.737 54.9568 109.643 52.9439 109.643H52.857C50.9253 109.671 48.4302 108.908 46.022 106.752C45.7332 106.489 45.5089 106.259 45.2342 105.965C36.7311 96.7803 30.4287 85.7204 30.4287 76.0005ZM52.8632 64.7467C46.6698 64.7467 41.649 69.7674 41.649 75.9608C41.649 82.1542 46.6698 87.175 52.8632 87.175C59.0566 87.175 64.0773 82.1542 64.0773 75.9608C64.0773 69.7674 59.0566 64.7467 52.8632 64.7467Z" fill="#0F595C"/>
<path fill-rule="evenodd" clip-rule="evenodd" d="M52.8626 70.3942C49.7659 70.3942 47.2555 72.9045 47.2555 76.0012C47.2555 79.0979 49.7659 81.6083 52.8626 81.6083C55.9593 81.6083 58.4696 79.0979 58.4696 76.0012C58.4696 72.9045 55.9593 70.3942 52.8626 70.3942ZM41.6484 76.0012C41.6484 69.8079 46.6692 64.7871 52.8626 64.7871C59.056 64.7871 64.0767 69.8079 64.0767 76.0012C64.0767 82.1946 59.056 87.2154 52.8626 87.2154C46.6692 87.2154 41.6484 82.1946 41.6484 76.0012Z" fill="#FFA45C"/>
<defs>
<linearGradient id="paint0_linear_243_64043" x1="52.9286" y1="10.3574" x2="52.9286" y2="101.429" gradientUnits="userSpaceOnUse">
<stop stop-color="#FFEBDB"/>
<stop offset="1" stop-color="#FFCDA7"/>
</linearGradient>
</defs>
</svg>
