<svg width="423" height="427" viewBox="0 0 423 427" fill="none" xmlns="http://www.w3.org/2000/svg">
<path d="M6.8327 278.882C22.7221 328.136 56.0046 369.918 100.459 396.418C144.913 422.918 197.497 432.322 248.38 422.873C299.264 413.423 344.965 385.767 376.941 345.073C408.917 304.379 424.979 253.433 422.125 201.758C419.271 150.084 397.696 101.216 361.433 64.2915C325.171 27.3666 276.702 4.91114 225.087 1.12261C173.472 -2.66593 122.244 12.4717 80.9786 43.7061C39.7129 74.9404 11.2341 120.134 0.865411 170.838L1.90858 171.051C12.2254 120.6 40.5618 75.6332 81.6212 44.5551C122.681 13.4769 173.652 -1.58509 225.009 2.18451C276.366 5.9541 324.592 28.2973 360.674 65.0376C396.755 101.778 418.222 150.401 421.062 201.817C423.901 253.234 407.92 303.925 376.104 344.415C344.288 384.905 298.815 412.423 248.186 421.826C197.557 431.228 145.236 421.871 101.004 395.503C56.772 369.136 23.656 327.563 7.84603 278.555L6.8327 278.882Z" fill="#849E9E"/>
</svg>
