<svg width="82" height="112" viewBox="0 0 82 112" fill="none" xmlns="http://www.w3.org/2000/svg">
<path d="M8.99908 101.984C7.85043 99.9418 7.88233 93.7943 8.04187 90.976L79.0352 90.8164L79.3541 95.4429C79.4073 96.1874 79.2266 98.4742 78.078 101.665C76.642 105.653 73.1323 109.003 70.4202 109.961C67.7081 110.918 32.6103 110.599 27.5052 110.599C22.4 110.599 16.9758 110.28 14.5828 109.003C12.1898 107.727 10.4349 104.536 8.99908 101.984Z" fill="#0F595C"/>
<path d="M8.35986 23.4923V90.6567H79.1936C79.2468 69.5449 79.3211 26.5554 79.1936 23.4923C79.034 19.6635 77.4387 19.6635 74.0884 15.1965C71.4083 11.6229 62.8677 11.7931 58.9326 12.3249C47.1269 12.1122 22.1436 11.942 16.6557 12.963C11.1677 13.984 8.83847 20.408 8.35986 23.4923Z" fill="#0F595C"/>
<path d="M66.4879 12.6445H20.9044C13.7113 12.6445 7.88037 18.4755 7.88037 25.6685V97.2998C7.88037 104.493 13.7113 110.324 20.9044 110.324H66.4879C73.6807 110.324 79.5118 104.493 79.5118 97.2998V25.6685C79.5118 18.4755 73.6807 12.6445 66.4879 12.6445Z" stroke="#0F595C" stroke-width="3.10715"/>
<path d="M7.88037 90.7871H79.5118" stroke="#0F595C" stroke-width="3.10715"/>
<path d="M3.17633 94.6675C2.02766 92.6254 2.05958 86.4779 2.21912 83.6594L73.2125 83.5L73.5314 88.1265C73.5846 88.8708 73.4037 91.1576 72.2551 94.3483C70.8193 98.3368 67.3096 101.687 64.5975 102.644C61.8854 103.601 26.7876 103.282 21.6823 103.282C16.5773 103.282 11.1531 102.963 8.76007 101.687C6.36704 100.411 4.61215 97.22 3.17633 94.6675Z" fill="#E38B46"/>
<path d="M2.40625 16.2052V83.3697H73.2401C73.2931 62.2577 73.3676 19.2683 73.2401 16.2052C73.0805 12.3764 71.4851 12.3764 68.1348 7.90939C65.4546 4.33581 56.9141 4.50597 52.979 5.03776C41.1734 4.82504 16.1901 4.65487 10.7021 5.6759C5.21407 6.69693 2.88486 13.1209 2.40625 16.2052Z" fill="url(#paint0_linear_243_63960)"/>
<path d="M60.666 5.32617H15.0825C7.88959 5.32617 2.05859 11.1572 2.05859 18.35V89.9814C2.05859 97.1743 7.88959 103.005 15.0825 103.005H60.666C67.859 103.005 73.6899 97.1743 73.6899 89.9814V18.35C73.6899 11.1572 67.859 5.32617 60.666 5.32617Z" stroke="#0D4547" stroke-width="3.10715"/>
<path fill-rule="evenodd" clip-rule="evenodd" d="M44.5952 27.9208C44.5952 28.4908 45.0573 28.9529 45.6273 28.9529H51.8201C52.3902 28.9529 52.8523 29.415 52.8523 29.9851V36.1779C52.8523 36.7479 53.3144 37.21 53.8844 37.21C54.4544 37.21 54.9165 36.7479 54.9165 36.1779V29.9851C54.9165 28.275 53.5302 26.8887 51.8201 26.8887H45.6273C45.0573 26.8887 44.5952 27.3508 44.5952 27.9208ZM53.8844 50.6279C53.3144 50.6279 52.8523 51.09 52.8523 51.66V57.8528C52.8523 58.4229 52.3902 58.885 51.8201 58.885H45.6273C45.0573 58.885 44.5952 59.3471 44.5952 59.9171C44.5952 60.4871 45.0573 60.9492 45.6273 60.9492H51.8201C53.5302 60.9492 54.9165 59.5629 54.9165 57.8528V51.66C54.9165 51.09 54.4544 50.6279 53.8844 50.6279ZM30.1452 58.885C30.7152 58.885 31.1773 59.3471 31.1773 59.9171C31.1773 60.4871 30.7152 60.9492 30.1452 60.9492H23.9524C22.2423 60.9492 20.856 59.5629 20.856 57.8528V51.66C20.856 51.09 21.3181 50.6279 21.8881 50.6279C22.4581 50.6279 22.9202 51.09 22.9202 51.66V57.8528C22.9202 58.4229 23.3823 58.885 23.9524 58.885H30.1452ZM21.8881 37.21C22.4581 37.21 22.9202 36.7479 22.9202 36.1779V29.9851C22.9202 29.415 23.3823 28.9529 23.9524 28.9529H30.1452C30.7152 28.9529 31.1773 28.4908 31.1773 27.9208C31.1773 27.3508 30.7152 26.8887 30.1452 26.8887H23.9524C22.2423 26.8887 20.856 28.275 20.856 29.9851V36.1779C20.856 36.7479 21.3181 37.21 21.8881 37.21Z" fill="#0F595C"/>
<ellipse cx="45.698" cy="38.2409" rx="0.515389" ry="0.5046" fill="#EBBF9D"/>
<ellipse cx="49.1336" cy="39.5866" rx="0.515389" ry="0.5046" fill="#EBBF9D"/>
<ellipse opacity="0.372321" cx="43.9807" cy="34.2038" rx="0.515389" ry="0.5046" fill="#EBBF9D"/>
<ellipse cx="27.8313" cy="35.8855" rx="0.515389" ry="0.5046" fill="#EBBF9D"/>
<ellipse cx="28.1751" cy="41.6042" rx="0.515389" ry="0.5046" fill="#EBBF9D"/>
<ellipse opacity="0.372321" cx="25.426" cy="37.905" rx="0.515389" ry="0.5046" fill="#EBBF9D"/>
<ellipse cx="47.9313" cy="47.4931" rx="0.687185" ry="0.6728" fill="#E38B46"/>
<ellipse opacity="0.468415" cx="45.5265" cy="49.8466" rx="0.687185" ry="0.6728" fill="#E38B46"/>
<ellipse opacity="0.124721" cx="49.9933" cy="49.5107" rx="0.687185" ry="0.6728" fill="#E38B46"/>
<ellipse cx="0.672731" cy="0.687255" rx="0.672731" ry="0.687255" transform="matrix(0 -1 -1 0 25.9419 51.8633)" fill="#E38B46"/>
<ellipse opacity="0.468415" cx="0.672731" cy="0.687255" rx="0.672731" ry="0.687255" transform="matrix(0 -1 -1 0 30.0649 49.1738)" fill="#E38B46"/>
<ellipse opacity="0.124721" cx="0.672731" cy="0.687255" rx="0.672731" ry="0.687255" transform="matrix(0 -1 -1 0 28.0034 47.4902)" fill="#E38B46"/>
<path d="M23.4331 41.5729C23.4331 40.3601 24.4163 39.377 25.6291 39.377H49.6209C50.8337 39.377 51.8168 40.3601 51.8168 41.5729V56.4072H23.4331V41.5729Z" fill="url(#paint1_linear_243_63960)"/>
<path fill-rule="evenodd" clip-rule="evenodd" d="M30.9454 34.2647H44.9057C46.4478 34.2647 47.6978 35.5148 47.6978 37.0568V51.0171C47.6978 52.131 47.0455 53.0925 46.1021 53.5406C46.2326 54.074 46.3018 54.6315 46.3018 55.2052V56.4253C46.3016 56.4253 46.3015 56.4254 46.3013 56.4254C48.71 55.8057 50.4899 53.6192 50.4899 51.0171V37.0568C50.4899 33.9728 47.9898 31.4727 44.9057 31.4727H30.9454C27.8614 31.4727 25.3613 33.9728 25.3613 37.0568V51.0171C25.3613 53.6191 27.1409 55.8054 29.5494 56.4253V55.2052C29.5494 54.6315 29.6186 54.074 29.7491 53.5406C28.8057 53.0925 28.1534 52.131 28.1534 51.0171V37.0568C28.1534 35.5148 29.4034 34.2647 30.9454 34.2647Z" fill="#E38B46" fill-opacity="0.5"/>
<path fill-rule="evenodd" clip-rule="evenodd" d="M42.8116 41.9427C42.8116 44.6413 40.624 46.8289 37.9255 46.8289C35.227 46.8289 33.0394 44.6413 33.0394 41.9427C33.0394 39.2442 35.227 37.0566 37.9255 37.0566C40.624 37.0566 42.8116 39.2442 42.8116 41.9427ZM44.9056 56.6011C45.3877 56.6011 45.8555 56.54 46.3017 56.4251V55.205C46.3017 51.35 43.1766 48.2249 39.3215 48.2249H36.5295C32.6744 48.2249 29.5493 51.35 29.5493 55.205V56.4251C29.9955 56.54 30.4633 56.6011 30.9453 56.6011H44.9056Z" fill="#0F595C"/>
<g filter="url(#filter0_d_243_63960)">
<rect x="23.4331" y="38.2422" width="28.3837" height="2.2707" rx="1.13535" fill="#E38B46"/>
</g>
<path d="M2.05859 83.4707H73.6899" stroke="#0D4547" stroke-width="3.10715"/>
<path d="M78.1822 9.30547L73.9772 8.37147L77.6152 6.04947C78.2802 5.62447 78.4792 4.73247 78.0552 4.06747C77.6302 3.40247 76.7372 3.20447 76.0722 3.62847L72.4342 5.95047L73.3692 1.74547C73.5392 0.98147 73.0432 0.20247 72.2792 0.0334697C71.5142 -0.13653 70.7362 0.35847 70.5662 1.12347L69.6302 5.32747L67.3092 1.68947C66.8842 1.02347 65.9932 0.82547 65.3282 1.25047C64.6632 1.67547 64.4642 2.56747 64.8892 3.23247L67.2102 6.87047L63.0052 5.93647C62.2412 5.76647 61.4622 6.26147 61.2922 7.02647C61.1222 7.79047 61.6182 8.56947 62.3822 8.73947L66.5872 9.67347L62.9492 11.9955C62.2832 12.4195 62.0862 13.3115 62.5112 13.9775C62.9352 14.6425 63.8262 14.8405 64.4922 14.4155L68.1302 12.0945L67.1972 16.2985C67.0272 17.0635 67.5222 17.8415 68.2872 18.0115C69.0512 18.1815 69.8292 17.6865 69.9992 16.9215L70.9342 12.7175L73.2552 16.3555C73.6792 17.0205 74.5712 17.2185 75.2362 16.7945C75.9022 16.3695 76.1002 15.4775 75.6752 14.8125L73.3542 11.1745L77.5592 12.1085C78.3242 12.2785 79.1022 11.7825 79.2722 11.0185C79.4422 10.2535 78.9462 9.47547 78.1822 9.30547Z" fill="#FFA45C"/>
<defs>
<filter id="filter0_d_243_63960" x="20.8981" y="36.9747" width="33.4539" height="7.34156" filterUnits="userSpaceOnUse" color-interpolation-filters="sRGB">
<feFlood flood-opacity="0" result="BackgroundImageFix"/>
<feColorMatrix in="SourceAlpha" type="matrix" values="0 0 0 0 0 0 0 0 0 0 0 0 0 0 0 0 0 0 127 0" result="hardAlpha"/>
<feOffset dy="1.26752"/>
<feGaussianBlur stdDeviation="1.26752"/>
<feColorMatrix type="matrix" values="0 0 0 0 1 0 0 0 0 0.740764 0 0 0 0 0.5375 0 0 0 0.47 0"/>
<feBlend mode="normal" in2="BackgroundImageFix" result="effect1_dropShadow_243_63960"/>
<feBlend mode="normal" in="SourceGraphic" in2="effect1_dropShadow_243_63960" result="shape"/>
</filter>
<linearGradient id="paint0_linear_243_63960" x1="37.8583" y1="4.74805" x2="37.8583" y2="83.3697" gradientUnits="userSpaceOnUse">
<stop stop-color="#FFEBDB"/>
<stop offset="1" stop-color="#FFCDA7"/>
</linearGradient>
<linearGradient id="paint1_linear_243_63960" x1="51.8168" y1="56.4072" x2="51.8168" y2="39.377" gradientUnits="userSpaceOnUse">
<stop stop-color="#E38B46" stop-opacity="0.03"/>
<stop offset="1" stop-color="#FFF3EA"/>
</linearGradient>
</defs>
</svg>
