<svg width="112" height="113" viewBox="0 0 112 113" fill="none" xmlns="http://www.w3.org/2000/svg">
<path d="M58.8882 5.26758C50.9322 5.26758 44.4829 11.7163 44.4829 19.6729V24.4746H39.6812C31.7251 24.4746 25.2759 30.9234 25.2759 38.8799V86.8975C25.2759 94.854 31.7251 101.303 39.6812 101.303H97.3023C105.361 101.322 111.809 94.7916 111.708 86.8975V19.6729C111.708 11.7163 105.258 5.26758 97.3023 5.26758H58.8882ZM58.8882 14.8711H97.3023C99.9538 14.8711 102.104 17.0223 102.104 19.6729V86.8975C102.104 89.548 99.9538 91.6992 97.3023 91.6992C94.6503 91.6992 92.5 89.548 92.5005 86.8975V38.8799C92.5005 30.9234 86.0508 24.4746 78.0952 24.4746H54.0864V19.6729C54.0864 17.0223 56.2362 14.8711 58.8882 14.8711Z" fill="#0F595C"/>
<path d="M52.355 2C44.399 2 37.9497 8.44876 37.9497 16.4053V21.207H33.148C25.1919 21.207 18.7427 27.6558 18.7427 35.6123V83.6299C18.7427 91.5864 25.1919 98.0352 33.148 98.0352H90.7691C98.8279 98.0544 105.276 91.524 105.174 83.6299V16.4053C105.174 8.44876 98.7246 2 90.7691 2H52.355ZM52.355 11.6035H90.7691C93.4206 11.6035 95.5708 13.7547 95.5708 16.4053V83.6299C95.5708 86.2805 93.4206 88.4317 90.7691 88.4317C88.1171 88.4317 85.9668 86.2805 85.9673 83.6299V35.6123C85.9673 27.6558 79.5176 21.207 71.562 21.207H47.5532V16.4053C47.5532 13.7547 49.703 11.6035 52.355 11.6035Z" fill="url(#paint0_linear_241_63632)" stroke="#0D4547" stroke-width="2.28648"/>
<path d="M22.1182 72.5781C19.6214 72.5781 17.4553 73.7761 15.7448 75.5638C13.2566 75.5087 10.8353 76.1665 9.08435 77.9175C7.33353 79.6685 6.67429 82.0901 6.73033 84.5779C4.94203 86.2885 3.74463 88.4547 3.74463 90.9517C3.74463 93.4486 4.94203 95.6148 6.73033 97.3254C6.67429 99.8132 7.33353 102.235 9.08435 103.986C10.8355 105.737 13.2566 106.396 15.7448 106.339C17.4553 108.127 19.6214 109.325 22.1182 109.325C24.6149 109.325 26.781 108.127 28.4916 106.339C30.9797 106.395 33.401 105.737 35.152 103.986C36.9028 102.235 37.562 99.8132 37.506 97.3254C39.2943 95.6148 40.4917 93.4486 40.4917 90.9517C40.4917 88.4547 39.2943 86.2885 37.506 84.5779C37.562 82.0901 36.9028 79.6685 35.152 77.9175C33.4008 76.1665 30.9797 75.5069 28.4916 75.5638C26.781 73.7761 24.6149 72.5781 22.1182 72.5781Z" fill="#0F595C"/>
<path fill-rule="evenodd" clip-rule="evenodd" d="M28.9292 85.9796C29.6468 86.6971 29.6468 87.8604 28.9292 88.578L21.5798 95.9274C20.8623 96.6449 19.6989 96.6449 18.9814 95.9274L15.3067 92.2527C14.5892 91.5351 14.5892 90.3718 15.3067 89.6543C16.0242 88.9367 17.1876 88.9367 17.9051 89.6543L20.2806 92.0298L26.3308 85.9796C27.0484 85.262 28.2117 85.262 28.9292 85.9796Z" fill="#FFA45C"/>
<path d="M34.6929 34.959C32.0409 34.959 29.8911 37.1102 29.8911 39.7607V49.3643C29.8906 52.0148 32.0409 54.166 34.6929 54.166H39.4946C42.1462 54.166 44.2964 52.0148 44.2964 49.3643V39.7607C44.2964 37.1102 42.1462 34.959 39.4946 34.959H34.6929ZM53.8999 44.5625C51.2479 44.5625 49.0977 46.7137 49.0981 49.3643C49.0981 52.0148 51.2479 54.166 53.8999 54.166H63.5034C66.155 54.166 68.3052 52.0148 68.3052 49.3643C68.3052 46.7137 66.155 44.5625 63.5034 44.5625H53.8999ZM34.6929 58.9678C32.0409 58.9678 29.8906 61.119 29.8911 63.7695C29.8911 66.4201 32.0409 68.5713 34.6929 68.5713H63.5034C66.155 68.5713 68.3052 66.4201 68.3052 63.7695C68.3052 61.119 66.155 58.9678 63.5034 58.9678H34.6929ZM34.6929 73.373C32.0409 73.373 29.8906 75.5242 29.8911 78.1748C29.8911 80.8254 32.0409 82.9766 34.6929 82.9766H63.5034C66.155 82.9766 68.3052 80.8254 68.3052 78.1748C68.3052 75.5242 66.155 73.373 63.5034 73.373H34.6929Z" fill="#0F595C"/>
<defs>
<linearGradient id="paint0_linear_241_63632" x1="61.9591" y1="2" x2="61.9591" y2="98.0352" gradientUnits="userSpaceOnUse">
<stop stop-color="#FFEBDB"/>
<stop offset="1" stop-color="#FFCDA7"/>
</linearGradient>
</defs>
</svg>
