<svg width="80" height="80" viewBox="0 0 80 80" fill="none" xmlns="http://www.w3.org/2000/svg">
<rect width="80" height="80" rx="8" fill="#002829"/>
<path d="M23.3296 33.5336C23.9624 33.5336 24.2788 33.2172 24.2788 32.5844V27.7593C24.2788 26.6123 24.5688 25.7488 25.1489 25.1687C25.7422 24.5886 26.5991 24.2986 27.7197 24.2986H32.6042C33.2502 24.2986 33.5732 23.9822 33.5732 23.3494C33.5732 22.7165 33.2502 22.4001 32.6042 22.4001H27.6801C25.9399 22.4001 24.6216 22.8418 23.7251 23.7251C22.8418 24.6084 22.4001 25.9201 22.4001 27.6604V32.5844C22.4001 33.2172 22.71 33.5336 23.3296 33.5336ZM27.6801 57.6001H32.6042C33.2502 57.6001 33.5732 57.2904 33.5732 56.6707C33.5732 56.0379 33.2502 55.7214 32.6042 55.7214H27.7197C26.5991 55.7214 25.7422 55.4315 25.1489 54.8513C24.5688 54.2713 24.2788 53.4078 24.2788 52.2608V47.4357C24.2788 46.8029 23.9624 46.4864 23.3296 46.4864C22.71 46.4864 22.4001 46.8029 22.4001 47.4357V52.3597C22.4001 54.1 22.8418 55.4051 23.7251 56.2752C24.6216 57.1585 25.9399 57.6001 27.6801 57.6001ZM47.3961 57.6001H52.3201C54.0603 57.6001 55.3721 57.152 56.2555 56.2555C57.152 55.3721 57.6001 54.0736 57.6001 52.3597V47.4357C57.6001 46.8029 57.2837 46.4864 56.6509 46.4864C56.0313 46.4864 55.7214 46.8029 55.7214 47.4357V52.2608C55.7214 53.4078 55.4182 54.2713 54.8118 54.8513C54.2054 55.4315 53.355 55.7214 52.2608 55.7214H47.3961C46.7501 55.7214 46.4272 56.0379 46.4272 56.6707C46.4272 57.2904 46.7501 57.6001 47.3961 57.6001Z" fill="white"/>
<path d="M57.6 32.5844C57.6 33.2172 57.2835 33.5336 56.6507 33.5336C56.0312 33.5336 55.7213 33.2172 55.7213 32.5844V27.7593C55.7213 26.6123 55.4181 25.7488 54.8117 25.1687C54.2053 24.5886 53.3549 24.2986 52.2606 24.2986H47.396C46.7499 24.2986 46.4269 23.9822 46.4269 23.3494C46.4269 22.7165 46.7499 22.4001 47.396 22.4001H52.32C54.0602 22.4001 55.372 22.8484 56.2552 23.7449C57.1517 24.6282 57.6 25.9333 57.6 27.6604V32.5844Z" fill="#F28532"/>
<path d="M40 52.8C41.7526 52.8 43.3988 52.464 44.9387 51.7918C46.4872 51.1281 47.8484 50.2094 49.0225 49.0353C50.1966 47.8526 51.1196 46.4915 51.7918 44.9515C52.464 43.4032 52.8 41.7526 52.8 40C52.8 38.2473 52.464 36.6011 51.7918 35.0612C51.1196 33.5128 50.1966 32.1515 49.0225 30.9774C47.8484 29.7948 46.4872 28.8717 44.9387 28.2081C43.3904 27.536 41.7398 27.2 39.9872 27.2C38.2345 27.2 36.5841 27.536 35.0356 28.2081C33.4957 28.8717 32.1387 29.7948 30.9647 30.9774C29.7906 32.1515 28.8675 33.5128 28.1954 35.0612C27.5318 36.6011 27.2 38.2473 27.2 40C27.2 41.7526 27.5318 43.4032 28.1954 44.9515C28.8675 46.4915 29.7906 47.8526 30.9647 49.0353C32.1472 50.2094 33.5085 51.1281 35.0484 51.7918C36.5968 52.464 38.2473 52.8 40 52.8ZM40 51.1537C38.4515 51.1537 37.0052 50.8644 35.661 50.2859C34.3167 49.7073 33.1341 48.9076 32.1132 47.8867C31.0923 46.8657 30.2925 45.6832 29.714 44.339C29.144 42.9862 28.859 41.5398 28.859 40C28.859 38.4601 29.144 37.018 29.714 35.6737C30.2925 34.321 31.088 33.1341 32.1004 32.1132C33.1214 31.0838 34.304 30.284 35.6482 29.714C37.0009 29.1355 38.4473 28.8462 39.9872 28.8462C41.5356 28.8462 42.9819 29.1355 44.3262 29.714C45.6704 30.284 46.8531 31.0838 47.8739 32.1132C48.9033 33.1341 49.7073 34.321 50.2859 35.6737C50.8644 37.018 51.1537 38.4601 51.1537 40C51.1537 41.5398 50.8644 42.9862 50.2859 44.339C49.7158 45.6832 48.9204 46.8657 47.8995 47.8867C46.8785 48.9076 45.6916 49.7073 44.339 50.2859C42.9862 50.8644 41.5398 51.1537 40 51.1537ZM39.9872 46.2787C40.8465 46.2787 41.5995 46.1214 42.246 45.8065C42.9011 45.4918 43.4073 45.1344 43.7646 44.7345C44.1305 44.3347 44.3134 44.0028 44.3134 43.7392C44.3134 43.6115 44.2624 43.5265 44.1603 43.484C44.0667 43.4414 43.9689 43.4456 43.8667 43.4966C43.4414 43.7859 42.9182 44.0539 42.2971 44.3006C41.676 44.5388 40.906 44.658 39.9872 44.658C39.0683 44.658 38.2984 44.5388 37.6774 44.3006C37.0648 44.0539 36.5415 43.7859 36.1076 43.4966C36.0055 43.4456 35.9034 43.4414 35.8013 43.484C35.7078 43.5265 35.661 43.6115 35.661 43.7392C35.661 44.0028 35.8396 44.3347 36.197 44.7345C36.5628 45.1344 37.0732 45.4918 37.7284 45.8065C38.3835 46.1214 39.1364 46.2787 39.9872 46.2787ZM36.1714 38.8131C36.5543 38.8131 36.886 38.6558 37.1668 38.3409C37.4561 38.0262 37.6008 37.6305 37.6008 37.154C37.6008 36.6862 37.4561 36.2948 37.1668 35.98C36.886 35.6567 36.5543 35.4951 36.1714 35.4951C35.7971 35.4951 35.4695 35.6567 35.1888 35.98C34.9165 36.2948 34.7804 36.6862 34.7804 37.154C34.7804 37.6305 34.9208 38.0262 35.2016 38.3409C35.4823 38.6558 35.8056 38.8131 36.1714 38.8131ZM43.7902 38.8131C44.1731 38.8131 44.5049 38.6558 44.7856 38.3409C45.0664 38.0262 45.2067 37.6305 45.2067 37.154C45.2067 36.6862 45.0664 36.2948 44.7856 35.98C44.5049 35.6567 44.1731 35.4951 43.7902 35.4951C43.4158 35.4951 43.0883 35.6567 42.8075 35.98C42.5353 36.2948 42.3992 36.6862 42.3992 37.154C42.3992 37.6305 42.5395 38.0262 42.8203 38.3409C43.1011 38.6558 43.4243 38.8131 43.7902 38.8131Z" fill="white"/>
</svg>
